<?xml version="1.0" encoding="UTF-8" standalone="no"?><!DOCTYPE svg PUBLIC "-//W3C//DTD SVG 1.1//EN" "http://www.w3.org/Graphics/SVG/1.1/DTD/svg11.dtd"><svg width="100%" height="100%" viewBox="0 0 91 66" version="1.1" xmlns="http://www.w3.org/2000/svg" xmlns:xlink="http://www.w3.org/1999/xlink" xml:space="preserve" xmlns:serif="http://www.serif.com/" style="fill-rule:evenodd;clip-rule:evenodd;stroke-linejoin:round;stroke-miterlimit:1.41421;"><path d="M8.924,0.888c0,0 -0.048,-0.884 -0.26,-0.886c-0.261,-0.002 -0.254,0.886 -0.254,0.886l0,13.476c0,0.334 -0.303,0.606 -0.674,0.606c-0.371,0 -0.676,-0.272 -0.676,-0.606l-0.537,-13.476c0,0 0.002,-0.89 -0.236,-0.888c-0.237,0.002 -0.248,0.888 -0.248,0.888l-0.391,13.476c0,0.334 -0.303,0.606 -0.674,0.606c-0.371,0 -0.674,-0.272 -0.674,-0.606l-0.393,-13.476c0,0 -0.004,-0.886 -0.241,-0.886c-0.236,0.002 -0.238,0.886 -0.238,0.886l-0.539,13.476c0,0.334 -0.301,0.606 -0.674,0.606c-0.371,0 -0.676,-0.272 -0.676,-0.606l0,-13.476c0,0 -0.002,-0.886 -0.239,-0.884c-0.238,0.002 -0.276,0.884 -0.276,0.884c-0.247,3.829 -1.259,14.559 -0.974,18.65c0.115,1.666 3.395,2.437 3.528,3.365c0.289,2.044 0.4,4.531 0.396,8.108c-0.202,9.712 -1.58,29.481 -1.596,31.657c-0.013,1.738 1.16,3.148 2.594,3.148c1.429,0 2.658,-1.412 2.592,-3.148c-0.089,-2.331 -1.496,-22.325 -1.618,-31.699c0.018,-3.205 0.142,-6.172 0.425,-8.066c0.134,-0.928 3.408,-1.699 3.523,-3.365c0.285,-4.091 -0.727,-14.821 -0.97,-18.65" style="fill:#231f20;fill-rule:nonzero;"/><path d="M89.134,35.149c-0.489,-13.457 0.901,-30.616 0.134,-34.65c-0.053,-0.261 -0.192,-0.712 -0.545,-0.38c-6.252,5.894 -6.058,20.38 -6.056,25.654c0,1.204 -0.135,4.341 0.55,5.205c0.997,1.257 3.78,2.514 3.754,4.001c-0.256,12.665 -1.69,25.744 -1.704,27.688c-0.013,1.739 1.16,3.148 2.592,3.148c1.432,0 2.658,-1.409 2.596,-3.148l-1.321,-27.518Z" style="fill:#231f20;fill-rule:nonzero;"/><path d="M45.004,0.208c-18.291,0 -33.12,14.557 -33.12,32.512c0,17.957 14.829,32.511 33.12,32.511c18.29,0 33.119,-14.554 33.119,-32.511c0,-17.955 -14.829,-32.512 -33.119,-32.512m19.284,46.167c-4.639,6.321 -11.928,9.681 -19.318,9.681c-4.818,0 -9.678,-1.429 -13.878,-4.403c-5.152,-3.645 -8.548,-9.047 -9.564,-15.202c-1.014,-6.157 0.473,-12.332 4.189,-17.389c3.716,-5.057 9.212,-8.393 15.484,-9.389c6.27,-0.994 12.562,0.464 17.714,4.113c5.152,3.648 8.548,9.045 9.564,15.2c1.016,6.157 -0.473,12.33 -4.191,17.389" style="fill:#231f20;fill-rule:nonzero;"/><path d="M66.054,29.364c-1.884,-11.415 -12.838,-19.169 -24.465,-17.322c-11.627,1.849 -19.528,12.601 -17.648,24.016c1.887,11.416 12.841,19.172 24.468,17.323c11.627,-1.849 19.528,-12.601 17.645,-24.017m-17.256,18.09c-6.487,1.029 -12.79,-1.37 -17.228,-5.91c4.77,3.555 10.788,5.265 16.958,4.282c6.175,-0.984 11.338,-4.468 14.718,-9.319c-2.755,5.689 -7.96,9.913 -14.448,10.947" style="fill:#231f20;fill-rule:nonzero;"/></svg>