<?xml version="1.0" encoding="UTF-8" standalone="no"?><!DOCTYPE svg PUBLIC "-//W3C//DTD SVG 1.1//EN" "http://www.w3.org/Graphics/SVG/1.1/DTD/svg11.dtd"><svg width="100%" height="100%" viewBox="0 0 108 54" version="1.1" xmlns="http://www.w3.org/2000/svg" xmlns:xlink="http://www.w3.org/1999/xlink" xml:space="preserve" xmlns:serif="http://www.serif.com/" style="fill-rule:evenodd;clip-rule:evenodd;stroke-linejoin:round;stroke-miterlimit:1.41421;"><g><path d="M107.229,16.554l-107.229,0l0,-6.579l107.229,0l0,6.579Zm-105.397,-1.847l103.568,0l0,-2.883l-103.568,0l0,2.883Z" style="fill:#030405;fill-rule:nonzero;"/><path d="M72.294,11.824l-37.359,0l0,-11.824l37.359,0l0,11.824Zm-35.529,-1.847l33.7,0l0,-8.128l-33.7,0l0,8.128Z" style="fill:#030405;fill-rule:nonzero;"/><path d="M74.38,53.616l-41.53,0l0,-32.783l41.53,0l0,32.783Zm-40.167,-1.376l38.804,0l0,-30.033l-38.804,0l0,30.033Z" style="fill:#030405;fill-rule:nonzero;"/><path d="M34.213,53.616l-33.978,0l0,-6.106l33.978,0l0,6.106Zm-32.615,-1.376l31.254,0l0,-3.354l-31.254,0l0,3.354Z" style="fill:#030405;fill-rule:nonzero;"/><path d="M106.995,53.616l-33.978,0l0,-6.106l33.978,0l0,6.106Zm-32.615,-1.376l31.252,0l0,-3.354l-31.252,0l0,3.354Z" style="fill:#030405;fill-rule:nonzero;"/><path d="M58.918,30.72c0,1.392 -1.12,2.521 -2.497,2.521c-1.378,0 -2.494,-1.129 -2.494,-2.521c0,-1.392 1.116,-2.519 2.494,-2.519c1.377,0 2.497,1.127 2.497,2.519" style="fill:#030405;fill-rule:nonzero;"/><path d="M56.422,33.559c-1.611,0 -2.917,1.319 -2.917,2.947l0,4.669c0,1.628 1.306,2.947 2.917,2.947c1.612,0 2.918,-1.319 2.918,-2.947l0,-4.669c0,-1.628 -1.306,-2.947 -2.918,-2.947" style="fill:#030405;fill-rule:nonzero;"/><rect x="56.975" y="41.234" width="2.366" height="11.694" style="fill:#030405;"/><rect x="53.504" y="41.234" width="2.368" height="11.694" style="fill:#030405;"/><path d="M57.077,33.633l1.593,0.481c1.1,0.329 1.854,1.35 1.854,2.51l0,6.767l-1.743,1.756l-1.704,-11.514Z" style="fill:#030405;fill-rule:nonzero;"/><path d="M63.919,51.048l-3.159,0l0,-6.544l1.778,0l1.381,6.544Z" style="fill:#030405;fill-rule:nonzero;"/><path d="M46.04,36.187c0,1.052 0.841,1.898 1.882,1.898c1.036,0 1.878,-0.846 1.878,-1.898c0,-1.049 -0.842,-1.896 -1.878,-1.896c-1.041,0 -1.882,0.847 -1.882,1.896" style="fill:#030405;fill-rule:nonzero;"/><path d="M47.921,38.327c1.215,0 2.2,0.994 2.2,2.223l0,3.519c0,1.224 -0.985,2.22 -2.2,2.22c-1.215,0 -2.2,-0.996 -2.2,-2.22l0,-3.519c0,-1.229 0.985,-2.223 2.2,-2.223" style="fill:#030405;fill-rule:nonzero;"/><rect x="45.721" y="44.112" width="1.787" height="8.815" style="fill:#030405;"/><rect x="48.335" y="44.112" width="1.785" height="8.815" style="fill:#030405;"/><path d="M47.427,38.383l-1.2,0.363c-0.828,0.247 -1.398,1.018 -1.398,1.891l0,5.101l1.312,1.323l1.286,-8.678Z" style="fill:#030405;fill-rule:nonzero;"/><path d="M42.271,51.509l2.381,0l0,-4.931l-1.341,0l-1.04,4.931Z" style="fill:#030405;fill-rule:nonzero;"/><rect x="38.605" y="21.523" width="1.361" height="31.409" style="fill:#030405;"/><rect x="67.266" y="21.523" width="1.361" height="31.409" style="fill:#030405;"/><path d="M54.176,34.114c-1.1,0.329 -1.856,1.35 -1.856,2.509l-0.597,7.079l-0.713,-3.066c0,-0.871 -0.566,-1.642 -1.394,-1.889l-1.2,-0.363l2.751,6.979l1.073,0l3.529,-11.731l-1.593,0.482Z" style="fill:#030405;fill-rule:nonzero;"/><path d="M74.126,14.722l-41.02,0l-29.367,0l0,33.477l29.794,0l0,-26.679l40.166,0l0,26.679l29.795,0l0,-33.477l-29.368,0Zm-44.196,29.39l-21.866,0l0,-22.316l21.866,0l0,22.316Zm69.238,0l-21.865,0l0,-22.316l21.865,0l0,22.316Z" style="fill:#030405;fill-rule:nonzero;"/></g></svg>