<?xml version="1.0" encoding="UTF-8" standalone="no"?><!DOCTYPE svg PUBLIC "-//W3C//DTD SVG 1.1//EN" "http://www.w3.org/Graphics/SVG/1.1/DTD/svg11.dtd"><svg width="100%" height="100%" viewBox="0 0 108 63" version="1.1" xmlns="http://www.w3.org/2000/svg" xmlns:xlink="http://www.w3.org/1999/xlink" xml:space="preserve" xmlns:serif="http://www.serif.com/" style="fill-rule:evenodd;clip-rule:evenodd;stroke-linejoin:round;stroke-miterlimit:1.41421;"><path d="M106.847,39.677l-1.392,-0.711l0,-7.333c0,-0.473 -0.323,-1.069 -0.725,-1.328l-11.126,-7.186l-6.391,-14.473c-0.186,-0.433 -0.7,-0.917 -1.147,-1.069l-23.491,-7.446c-0.45,-0.154 -1.182,-0.174 -1.641,-0.05l-60.934,16.542c0,0 4.18,-0.695 8.013,-1.321l-6.464,1.719c0,0 3.214,-0.537 6.59,-1.091l0,25.318l-5.457,-0.283l9.314,1.805l-0.616,1.988c-0.031,0.235 0.126,0.378 0.358,0.321l1.029,-0.27c0.005,0.234 0.018,0.464 0.051,0.701c0.387,2.929 2.651,4.973 5.073,4.723c0.696,-0.071 2.503,-0.895 2.872,-1.091c2.07,-1.079 2.373,-3.895 2.373,-3.895l-1.107,-0.827l13.401,1.781c0.919,1.807 2.642,2.923 4.447,2.689c2.057,-0.263 3.383,-1.419 3.615,-1.622l15.668,2.07l-1.061,3.164c-0.287,0.74 0.279,1.295 1.094,1.219l1.054,-0.139c0.011,0.363 0.028,0.731 0.079,1.103c0.354,2.682 1.712,4.882 3.52,6.21l-8.572,-0.988c0,0 9.243,1.989 11.397,2.249c2.157,0.259 5.954,-1.327 6.54,-1.637c4.219,-2.224 3.561,-7.752 3.561,-7.752l-1.401,-1.034l9.014,1.381c0.468,0.077 1.206,-0.011 1.644,-0.197l4.938,-1.909l-2.451,1.861c0,0 1.724,2.277 4.7,1.785c1.197,-0.204 3.391,-1.2 3.888,-1.476c1.957,-1.089 3.241,-3.458 3.254,-6.164l6.473,-2.671c0.219,-0.088 0.398,-0.36 0.398,-0.592l0,-3.446c0,-0.23 -0.172,-0.511 -0.382,-0.628m-2.437,-5.443c0,1.089 -0.742,1.977 -1.664,1.977c-0.919,0 -1.661,-0.888 -1.661,-1.977c0,-0.82 0.422,-1.518 1.018,-1.819c-0.402,0.36 -0.665,0.933 -0.665,1.575c0,0.639 0.257,1.205 0.65,1.565c-0.13,-0.336 -0.206,-0.712 -0.206,-1.12c0,-1.048 0.551,-1.909 1.337,-1.909c0.789,0 1.191,0.835 1.191,1.708m0,3.278c0,0.354 -0.25,0.641 -0.561,0.641c-0.31,0 -0.561,-0.287 -0.561,-0.641c0,-0.358 0.251,-0.643 0.561,-0.643c0.311,0 0.561,0.285 0.561,0.643m-1.136,-6.617l-20.559,3.431c-0.239,0.038 -0.426,0.259 -0.426,0.5l0,10.485l-1.101,-10.437c-0.026,-0.238 -0.179,-0.572 -0.34,-0.742l-9.133,-10.273l10.574,9.548l-3.666,-4.741l4.821,4.399c0.175,0.159 0.508,0.267 0.742,0.236l19.088,-2.406Zm-3.808,7.563l-8.416,2.361c-0.346,0.095 -0.514,-0.09 -0.514,-0.419c0,-0.325 0.172,-0.661 0.517,-0.747l8.41,-2.119c0.341,-0.086 0.517,0.051 0.517,0.301c0,0.245 -0.174,0.53 -0.514,0.623m0.514,1.42c0,0.248 -0.17,0.535 -0.514,0.636l-8.418,2.53c-0.344,0.099 -0.512,-0.082 -0.512,-0.4c0,-0.331 0.172,-0.669 0.514,-0.762l8.413,-2.289c0.343,-0.093 0.517,0.033 0.517,0.285m-0.517,-3.473l-8.41,2.185c-0.345,0.086 -0.517,-0.104 -0.517,-0.431c0,-0.324 0.172,-0.651 0.526,-0.733l8.395,-1.944c0.347,-0.084 0.523,0.057 0.523,0.307c0,0.252 -0.174,0.528 -0.517,0.616m-0.006,-2.052l-8.4,2.006c-0.349,0.084 -0.521,-0.113 -0.521,-0.44c0,-0.325 0.176,-0.649 0.526,-0.72l8.393,-1.772c0.349,-0.075 0.525,0.069 0.525,0.32c0,0.252 -0.176,0.524 -0.523,0.606m-15.324,3.3c0,-1.111 0.57,-2.061 1.379,-2.465c-0.544,0.486 -0.902,1.257 -0.902,2.138c0,0.858 0.35,1.622 0.882,2.115c-0.179,-0.455 -0.281,-0.97 -0.281,-1.518c0,-1.421 0.747,-2.585 1.816,-2.585c1.063,0 1.609,1.127 1.609,2.315c0,1.476 -1.008,2.671 -2.254,2.671c-1.244,0 -2.249,-1.195 -2.249,-2.671m1.432,4.335c0,0.451 -0.323,0.822 -0.718,0.822c-0.398,0 -0.714,-0.371 -0.714,-0.822c0,-0.453 0.316,-0.82 0.714,-0.82c0.395,0 0.718,0.367 0.718,0.82m-23.675,-25.68l0,6.725l-0.859,0c-0.535,0 -0.968,-0.438 -0.968,-0.977l0,-12.032c0,-0.81 0.106,-1.164 0.548,-1.294c0.462,-0.131 0.846,0.353 1.107,1.001l2.136,4.926l2.278,0.241l-1.482,0.133c-0.168,0.019 -1.427,0.179 -1.556,1.261c-0.072,0.577 -0.607,6.029 -0.607,6.029l0,-6.999c-0.347,0.197 -0.597,0.579 -0.597,0.986m3.111,8.167c0.426,-0.185 0.793,-0.66 0.899,-1.442l0.645,-5.601l0,4.896l3.464,0.705l-3.464,0l0,0.98c0,0.478 -0.382,0.92 -0.846,0.992l-2.943,0.467l2.245,-0.997Zm3.122,-14.585c-0.46,-1.505 0.207,-2.179 1.445,-1.94c0.004,0 7.52,1.427 7.52,1.427c0.026,0.007 0.053,0.016 0.079,0.02l-6.422,-0.493l7.127,1.403l-4.25,0l5.326,0.933l-3.247,0.194l4.151,0.621l3.917,9.371c0.371,0.884 -0.148,1.607 -1.151,1.607l-8.166,0c-0.875,0 -1.802,-0.438 -2.448,-1.074c0.76,0.375 1.609,0.612 2.298,0.612l6.955,-0.188l-6.387,-0.252c-1.452,-0.106 -3.716,-1.319 -4.169,-2.631l-3.809,-9.12c-0.336,-0.793 -0.314,-1.458 -0.011,-1.915l4.061,9.438c0,0 -2.364,-6.511 -2.819,-8.013m23.623,13.969c0,0 -6.855,0.583 -10.191,0.583c-3.334,0 -6.802,-0.583 -6.802,-0.583l16.993,0Zm-4.462,-11.086c0.503,0.802 3.064,6.296 3.064,6.296l-2.941,-7.293c0.263,0.235 0.482,0.502 0.599,0.771l4.105,9.248l-2.974,0.014l2.731,0.594l-4.372,0.055l3.897,0.559c-0.035,0.002 -0.069,0.016 -0.102,0.016l-3.148,0c-1.076,0 -1.527,-0.308 -2.046,-0.849c-0.623,-0.652 -1.098,-1.151 -1.098,-1.151l0.745,1.666c-0.358,-0.21 -0.659,-0.524 -0.804,-0.875l-4.136,-9.895c-0.464,-1.107 0.161,-1.812 1.394,-1.578l2.728,0.522c0.646,0.126 1.578,0.667 2.358,1.9m-23.31,-10.819l21.48,6.345l-4.613,-0.875l5.148,1.655l-7.202,-1.644l7.876,2.355l-10.567,-2.194l11.071,2.998l-21.598,-4.69c-0.232,-0.051 -0.495,-0.269 -0.583,-0.49l-1.264,-3.177c-0.086,-0.223 0.024,-0.347 0.252,-0.283m-47.369,46.242c-1.292,0.095 -2.45,-1.25 -2.589,-3.02c-0.115,-1.502 0.353,-2.876 1.537,-3.241c0.983,-0.3 2.205,1.129 2.324,2.735c0.058,0.742 -0.092,1.427 -0.377,1.969c0.532,-0.515 0.848,-1.41 0.775,-2.404c-0.064,-0.835 -0.393,-1.564 -0.857,-2.026c0.691,0.517 1.193,1.474 1.284,2.605c0.132,1.767 -0.805,3.285 -2.097,3.382m2.167,0.787c0.904,-0.92 1.483,-2.316 1.483,-3.871c0,-2.766 -1.81,-5.006 -4.039,-5.006c-0.769,0 -1.482,0.274 -2.094,0.729c0.698,-0.709 1.588,-1.131 2.56,-1.131c2.234,0 4.041,2.238 4.041,4.999c0,1.818 -0.78,3.4 -1.951,4.28m2.483,-8.882c-0.123,-0.249 -0.455,-0.499 -0.731,-0.554l-5.943,-1.134c-0.278,-0.055 -0.625,0.106 -0.769,0.345l-1.409,2.379l1.191,-2.785c0.104,-0.261 0.481,-0.467 0.848,-0.403l6.376,0.864c0.283,0.044 0.579,0.303 0.661,0.573l0.965,3.104l-1.189,-2.389Zm20.312,-30.03c0.701,-0.131 1.233,0.338 1.189,1.047l-0.504,7.98l0,-7.651c0,-0.473 -0.38,-0.802 -0.848,-0.724l-18.328,3.086l18.491,-3.738Zm5.963,11.917l2.572,-0.473l-2.912,-0.177l1.429,-0.612l-1.453,-0.102l0,-9.758c0,-0.417 0.225,-0.824 0.559,-1.08l0,7.12c0,0 0.497,-5.317 0.567,-6.046c0.124,-1.355 1.229,-1.556 2.353,-1.759l6.513,-1.186c0.617,-0.111 1.107,0.309 1.107,0.936l0,10.806c0,1.394 -0.336,1.86 -1.308,2.061c-0.972,0.199 -4.242,0.84 -4.242,0.84l5.336,0c-0.208,0.285 -0.535,0.475 -0.908,0.475l-19.727,0l14.396,-0.562l-4.282,-0.483Zm2.254,3.157l0,0.353c0,0.241 -0.193,0.418 -0.427,0.393l-1.763,-0.168c-0.234,-0.022 -0.428,-0.236 -0.428,-0.472l0,-0.106c0,-0.237 0.194,-0.429 0.428,-0.429l1.759,0c0.236,0 0.431,0.192 0.431,0.429m8.748,18.248c0,0.473 -0.369,1.003 -0.859,0.941l-30.187,-3.115l19.251,1.704c0.239,0.022 0.429,-0.153 0.429,-0.394l0,-12.579l0.479,12.628c0.011,0.234 0.208,0.448 0.446,0.466l8.497,0.749c1.094,0.035 1.213,-0.581 1.213,-1.067l0.731,-17.047l0,17.714Zm-8.413,-37.851l11.712,-2.108c-0.232,-0.36 -0.709,-0.581 -1.131,-0.495l-16.225,3.219l16.89,-4.438c0.461,-0.122 0.972,0.143 1.146,0.583l7.134,17.705l-7.006,-14.877c-0.201,-0.431 -0.744,-0.742 -1.221,-0.698l-11.299,1.109Zm16.535,53.78c-2.057,0.152 -3.904,-1.995 -4.118,-4.814c-0.184,-2.388 0.561,-4.58 2.445,-5.157c1.56,-0.477 3.508,1.799 3.703,4.353c0.088,1.182 -0.15,2.275 -0.605,3.135c0.848,-0.818 1.352,-2.252 1.232,-3.829c-0.101,-1.328 -0.625,-2.488 -1.365,-3.225c1.098,0.83 1.902,2.355 2.041,4.151c0.215,2.817 -1.272,5.222 -3.333,5.386m3.64,1.197c1.428,-1.453 2.338,-3.652 2.338,-6.117c0,-4.366 -2.861,-7.905 -6.387,-7.905c-1.211,0 -2.34,0.424 -3.305,1.149c1.102,-1.116 2.512,-1.79 4.045,-1.79c3.53,0 6.387,3.537 6.387,7.907c0,2.868 -1.237,5.371 -3.078,6.756m3.895,-14.621c-0.223,-0.415 -0.786,-0.819 -1.257,-0.899l-10.081,-1.92c-0.799,-0.139 -1.151,0.146 -1.385,0.559l-2.021,4.37l1.747,-4.893c0.162,-0.447 0.67,-0.765 1.145,-0.703l10.799,1.319l-7.611,-1.849l7.553,0.928c0.471,0.055 0.977,0.466 1.131,0.919l2.066,6.102l-2.086,-3.933Zm8.758,0.418c0.234,-0.022 0.616,-0.086 0.846,-0.144l14.32,-3.57l-13.858,4.16c-0.228,0.069 -0.606,0.113 -0.842,0.093l-3.767,-0.252l3.301,-0.287Zm22.594,-4.045l-8.015,3.119l6.873,-1.568l-4.419,1.65l3.135,-0.477l-18.111,6.884c-0.221,0.086 -0.4,-0.04 -0.4,-0.281l0,-2.487c0,-0.241 -0.184,-0.473 -0.413,-0.555c-0.228,-0.088 -3.33,-1.255 -3.33,-1.255l2.899,0.268c0.241,0.017 0.616,-0.016 0.844,-0.089l21.611,-6.672l-10.808,4.339l10.134,-2.876Z" style="fill:#231f20;fill-rule:nonzero;"/></svg>