<?xml version="1.0" encoding="UTF-8" standalone="no"?><!DOCTYPE svg PUBLIC "-//W3C//DTD SVG 1.1//EN" "http://www.w3.org/Graphics/SVG/1.1/DTD/svg11.dtd"><svg width="100%" height="100%" viewBox="0 0 140 67" version="1.1" xmlns="http://www.w3.org/2000/svg" xmlns:xlink="http://www.w3.org/1999/xlink" xml:space="preserve" xmlns:serif="http://www.serif.com/" style="fill-rule:evenodd;clip-rule:evenodd;stroke-linejoin:round;stroke-miterlimit:1.41421;"><g><g><path d="M31.005,64.377c0,0 26.945,1.646 39.281,2.099c3.924,0.148 7.065,0.196 9.526,0.196c5.278,0 7.424,-0.227 7.424,-0.227c0,0 -4.565,-0.826 -16.901,-1.281c-12.337,-0.453 -39.33,-0.787 -39.33,-0.787" style="fill:#3d312d;fill-rule:nonzero;"/><path d="M14.266,60.916c0,0 45.002,2.314 65.599,3.071c10.371,0.38 17.469,0.475 21.96,0.475c4.428,0 6.323,-0.092 6.323,-0.092c0,0 -7.637,-0.935 -28.234,-1.695c-20.597,-0.758 -65.648,-1.759 -65.648,-1.759" style="fill:#3d312d;fill-rule:nonzero;"/><path d="M57.786,59.16l-5.569,0.782c12.537,0.564 25.073,1.105 33.923,1.434c15.105,0.555 24.536,0.667 29.673,0.667c3.435,0 4.948,-0.053 4.948,-0.053c0,0 -9.356,-0.998 -34.575,-1.926c-7.546,-0.278 -17.771,-0.594 -28.4,-0.904m-51.968,-1.396c0,0 6.76,0.329 16.631,0.798l0,-0.372c-9.869,-0.26 -16.631,-0.426 -16.631,-0.426" style="fill:#3d312d;fill-rule:nonzero;"/><path d="M106.835,58.06l-6.818,0.956c12.898,0.403 20.959,0.48 25.289,0.48c2.777,0 4.019,-0.031 4.019,-0.031c0,0 -6.347,-0.636 -22.49,-1.405m-105.38,-3.301c0,0 8.678,0.411 20.992,0.981l0,-0.417c-12.316,-0.338 -20.992,-0.564 -20.992,-0.564" style="fill:#3d312d;fill-rule:nonzero;"/><path d="M121.98,55.935l-5.203,0.729c7.043,0.154 11.811,0.19 14.698,0.19c2.426,0 3.524,-0.024 3.524,-0.024c0,0 -3.817,-0.369 -13.019,-0.895m-121.98,-4.072c0,0 7.496,0.351 18.551,0.857l0.274,-0.344c-11.205,-0.31 -18.825,-0.513 -18.825,-0.513" style="fill:#3d312d;fill-rule:nonzero;"/><path d="M122.654,53.072l0,0.917c5.733,0.112 9.71,0.139 12.206,0.139c2.309,0 3.354,-0.022 3.354,-0.022c0,0 -4.522,-0.436 -15.56,-1.034m-121.699,-4.017c0,0 7.776,0.365 19.205,0.884c0.033,-0.115 0.064,-0.232 0.095,-0.353c-11.482,-0.323 -19.3,-0.531 -19.3,-0.531" style="fill:#3d312d;fill-rule:nonzero;"/><path d="M122.654,50.209l0,0.961c6.085,0.119 10.295,0.148 12.935,0.148c2.431,0 3.529,-0.024 3.529,-0.024c0,0 -4.761,-0.46 -16.464,-1.085m-118.434,-3.877c0,0 6.562,0.309 16.461,0.762c0.014,-0.104 0.025,-0.208 0.033,-0.314c-9.919,-0.274 -16.494,-0.448 -16.494,-0.448" style="fill:#3d312d;fill-rule:nonzero;"/><path d="M122.654,47.378l0,0.935c4.914,0.09 8.484,0.115 10.899,0.115c2.794,0 4.045,-0.031 4.045,-0.031c0,0 -4.333,-0.433 -14.944,-1.019m-112.701,-3.678c0,0 1.374,0.062 3.805,0.179c-0.025,-0.029 -0.049,-0.053 -0.073,-0.082c-2.386,-0.062 -3.732,-0.097 -3.732,-0.097" style="fill:#3d312d;fill-rule:nonzero;"/><path d="M122.654,44.599l0,0.805c2.218,0.026 4.05,0.035 5.528,0.035c3.46,0 4.984,-0.051 4.984,-0.051c0,0 -3.093,-0.331 -10.512,-0.789" style="fill:#3d312d;fill-rule:nonzero;"/><path d="M122.654,42.032l0,0.256c1.332,-0.026 1.942,-0.057 1.942,-0.057c0,0 -0.607,-0.075 -1.942,-0.199" style="fill:#3d312d;fill-rule:nonzero;"/><path d="M22.015,23.719l-0.062,0c-2.032,0.027 -3.806,1.268 -4.551,3.08c-0.161,-0.015 -0.324,-0.022 -0.488,-0.022l-0.084,0c-1.418,0.018 -2.748,0.581 -3.74,1.593c-0.994,1.014 -1.531,2.353 -1.513,3.767c0.015,1.279 0.49,2.487 1.327,3.428c-0.662,1.105 -1.012,2.382 -0.998,3.683c0.024,1.739 0.693,3.33 1.778,4.549c0.024,0.029 0.049,0.053 0.073,0.082c1.295,1.409 3.153,2.297 5.201,2.297l0.086,0c0.592,-0.011 1.175,-0.092 1.743,-0.245c-0.02,0.285 -0.044,0.57 -0.073,0.849c-0.009,0.106 -0.02,0.209 -0.033,0.316c-0.1,0.896 -0.239,1.747 -0.426,2.489c-0.031,0.122 -0.062,0.239 -0.095,0.354c-0.215,0.749 -0.482,1.361 -0.811,1.778l-0.524,0.661l-0.274,0.344l-0.616,0.776l2.28,-0.084c0.744,-0.024 1.489,-0.049 2.233,-0.075l0,-1.05c-0.757,0.023 -1.515,0.051 -2.271,0.078c1.226,-1.544 1.615,-4.894 1.726,-7.443c-0.144,-0.124 -0.277,-0.25 -0.402,-0.369c-0.749,0.351 -1.589,0.561 -2.47,0.568c-0.025,0 -0.049,0.002 -0.073,0.002c-3.279,0 -5.952,-2.623 -5.998,-5.892c-0.016,-1.438 0.483,-2.768 1.325,-3.809c-0.992,-0.769 -1.639,-1.955 -1.652,-3.301c-0.031,-2.348 1.858,-4.268 4.21,-4.299l0.076,0c0.426,0 0.839,0.069 1.226,0.186c0.316,-1.823 1.9,-3.217 3.822,-3.241l0.046,0c0.915,0 1.754,0.307 2.424,0.83c0.477,-0.263 1.014,-0.428 1.597,-0.433c0.018,-0.002 0.033,-0.002 0.051,-0.002c1.798,0 3.702,1.149 3.864,2.901c1.809,0.174 3.667,1.77 4.085,3.935l0.495,-0.383l0.49,-0.066c-0.137,-0.574 -0.362,-1.129 -0.676,-1.657c-0.806,-1.359 -2.105,-2.357 -3.511,-2.733c-0.627,-1.924 -2.77,-3.042 -4.747,-3.042l-0.06,0c-0.506,0.005 -1.005,0.097 -1.489,0.281c-0.76,-0.449 -1.622,-0.681 -2.521,-0.681" style="fill:#fff;fill-rule:nonzero;"/><path d="M85.281,17.806c0.058,0.364 0.184,0.707 0.276,1.06l22.906,0.844l0.002,0l14.606,10.032l-1.472,0.206l0,24.98l-25.925,3.636l-31.575,-1.162l0,0.871l-1.014,0.143l32.644,1.202l4.288,-0.601l6.818,-0.956l9.942,-1.397l5.202,-0.729l0.674,-0.095l0,-1.851l0,-0.917l0,-1.904l0,-0.959l0,-1.896l0,-0.936l0,-1.973l0,-0.805l0,-2.313l0,-0.256l0,-11.168l3.243,-0.453l-17.086,-11.737l-23.529,-0.866Zm-12.33,-0.456c0.058,0.367 0.184,0.71 0.277,1.061l4.862,0.179c0.086,-0.34 0.175,-0.694 0.219,-1.041l-5.358,-0.199Zm-9.219,-0.338l-12.71,12.295l0.809,-0.115l0.439,0.371l11.875,-11.486l1.615,0.06c0.086,-0.34 0.175,-0.694 0.219,-1.043l-2.247,-0.082Z" style="fill:#fff;fill-rule:nonzero;"/><path d="M23.503,52.254c-0.351,0.011 -0.703,0.024 -1.056,0.038l0,7.595l23.877,0.882l5.893,-0.829l5.569,-0.782l5.298,-0.742l1.016,-0.139l0,-0.875l-1.069,-0.038l-16.762,2.351l-22.766,-0.84l0,-6.621Zm28.327,-23.06l-0.806,0.113l-16.004,2.242l-0.491,0.071l-0.497,0.377c0.08,0.407 0.106,0.831 0.073,1.269l0.846,-0.646l16.561,-2.322l0.76,-0.735l-0.442,-0.369Z" style="fill:#fff;fill-rule:nonzero;"/><path d="M69.486,0c-0.274,0 -0.916,0.566 -1.014,0.826c-0.042,0.111 -0.282,1.12 -0.419,1.531c-0.414,1.224 -0.325,2.435 -0.535,3.683c-0.183,1.094 -0.477,2.161 -0.707,3.246c-0.296,1.413 -0.303,2.819 -0.435,4.248c-0.042,0.455 -0.179,0.851 -0.314,1.284c-0.183,0.592 -0.121,1.025 -0.066,1.606c0.022,0.216 0.011,0.442 -0.018,0.671c-0.044,0.349 -0.13,0.701 -0.219,1.041l7.47,0.276c-0.093,-0.353 -0.219,-0.694 -0.278,-1.06c-0.005,-0.034 -0.009,-0.069 -0.014,-0.1c-0.146,-0.879 -0.079,-1.752 -0.126,-2.636c-0.062,-1.144 -0.49,-2.207 -0.651,-3.331c-0.175,-1.206 -0.146,-2.432 -0.341,-3.639c-0.187,-1.177 -0.651,-2.308 -0.806,-3.486c-0.124,-0.652 0.033,-1.299 -0.168,-1.951c-0.146,-0.479 -0.353,-0.948 -0.519,-1.418c0.068,-0.303 -0.57,-0.753 -0.815,-0.789c-0.007,-0.002 -0.016,-0.002 -0.025,-0.002" style="fill:#3d312d;fill-rule:nonzero;"/><path d="M81.817,0.453c-0.276,0 -0.916,0.565 -1.016,0.828c-0.04,0.109 -0.283,1.118 -0.42,1.527c-0.411,1.226 -0.324,2.437 -0.532,3.683c-0.186,1.096 -0.477,2.163 -0.707,3.247c-0.296,1.414 -0.303,2.819 -0.435,4.249c-0.044,0.455 -0.181,0.85 -0.316,1.283c-0.179,0.59 -0.124,1.026 -0.064,1.604c0.02,0.219 0.011,0.447 -0.018,0.674c-0.044,0.349 -0.132,0.703 -0.219,1.043l7.468,0.276c-0.093,-0.353 -0.219,-0.696 -0.276,-1.063c-0.005,-0.03 -0.012,-0.066 -0.014,-0.099c-0.148,-0.879 -0.081,-1.754 -0.128,-2.636c-0.06,-1.144 -0.49,-2.207 -0.652,-3.333c-0.174,-1.204 -0.143,-2.431 -0.34,-3.637c-0.188,-1.18 -0.652,-2.309 -0.806,-3.488c-0.124,-0.65 0.033,-1.295 -0.168,-1.949c-0.146,-0.479 -0.351,-0.95 -0.519,-1.42c0.07,-0.301 -0.568,-0.754 -0.813,-0.787c-0.007,-0.002 -0.016,-0.002 -0.025,-0.002" style="fill:#3d312d;fill-rule:nonzero;"/><path d="M21.904,44.923c-0.11,2.547 -0.499,5.896 -1.727,7.443c0.757,-0.027 1.515,-0.051 2.271,-0.077c0.351,-0.014 0.704,-0.025 1.056,-0.036l0,-6.365c-0.685,-0.254 -1.187,-0.609 -1.6,-0.965" style="fill:#3d312d;fill-rule:nonzero;"/><path d="M29.225,37.001c-0.21,0.055 -0.431,0.086 -0.659,0.088c-0.009,0.002 -0.017,0.002 -0.024,0.002c-0.097,0 -0.19,-0.015 -0.287,-0.026c-0.137,0.289 -0.248,0.594 -0.312,0.917l1.282,-0.981Zm-11.056,-6.065c-0.647,0.343 -1.091,1.019 -1.082,1.801c0.015,1.102 0.919,1.986 2.026,1.986l0.02,0c0.634,-0.011 1.186,-0.312 1.551,-0.767c-1.397,-0.324 -2.448,-1.537 -2.515,-3.02m3.845,-6.168l-0.047,0c-1.922,0.027 -3.508,1.421 -3.824,3.245c-0.387,-0.121 -0.798,-0.185 -1.224,-0.185l-0.075,0c-2.353,0.026 -4.242,1.948 -4.213,4.295c0.015,1.345 0.663,2.534 1.655,3.3c-0.842,1.041 -1.341,2.371 -1.326,3.811c0.046,3.268 2.717,5.89 5.998,5.89l0.073,0c0.882,-0.011 1.721,-0.219 2.47,-0.57c0.126,0.122 0.258,0.245 0.402,0.369c0.413,0.356 0.917,0.712 1.6,0.963l0,-3.234l-1.584,-0.062l1.011,-0.775c-0.64,-0.705 -1.038,-1.637 -1.051,-2.662c-0.011,-0.997 0.342,-1.907 0.932,-2.618c-0.714,-0.321 -1.257,-0.942 -1.478,-1.699c-1.657,0.128 -2.951,1.504 -2.932,3.179c0.02,1.604 1.233,2.898 2.786,3.091c-0.698,0.801 -1.716,1.314 -2.865,1.332l-0.044,0c-2.11,0 -3.829,-1.688 -3.86,-3.789c-0.015,-1.262 0.588,-2.384 1.518,-3.093c-0.46,-0.559 -0.747,-1.259 -0.756,-2.033c-0.022,-1.745 1.321,-3.168 3.038,-3.311c0.272,-1.5 1.577,-2.647 3.17,-2.669l0.044,0c0.462,0 0.9,0.104 1.295,0.272c-0.064,0.269 -0.106,0.541 -0.104,0.833c0.011,0.954 0.42,1.802 1.065,2.414c0.354,-1.049 1.335,-1.816 2.514,-1.831l0.038,0c1.078,0 2.001,0.636 2.43,1.555c-0.881,0.285 -1.52,1.109 -1.504,2.081c0.015,1.195 0.989,2.154 2.182,2.154l0.031,0c0.765,-0.004 1.425,-0.404 1.816,-0.994c0.013,0.113 0.031,0.228 0.033,0.347c0.007,0.497 -0.126,0.965 -0.358,1.37l3.235,-2.475c0.033,-0.442 0.006,-0.866 -0.071,-1.27c-0.417,-2.165 -2.275,-3.76 -4.085,-3.937c-0.161,-1.75 -2.068,-2.894 -3.864,-2.894l-0.051,0c-0.585,0.004 -1.122,0.17 -1.597,0.431c-0.669,-0.519 -1.509,-0.831 -2.423,-0.831" style="fill:#3d312d;fill-rule:nonzero;"/><path d="M19.115,34.725c-1.11,0 -2.011,-0.884 -2.026,-1.987c-0.011,-0.784 0.433,-1.46 1.08,-1.802c0.068,1.484 1.118,2.695 2.514,3.02c-0.364,0.455 -0.915,0.755 -1.549,0.769l-0.019,0m2.317,-7.181l-0.044,0c-1.593,0.018 -2.896,1.167 -3.168,2.669c-1.719,0.142 -3.06,1.567 -3.038,3.31c0.007,0.775 0.296,1.475 0.756,2.032c-0.933,0.709 -1.534,1.834 -1.518,3.091c0.031,2.105 1.747,3.791 3.857,3.791l0.047,0c1.146,-0.018 2.167,-0.528 2.863,-1.33c-1.553,-0.194 -2.766,-1.489 -2.786,-3.093c-0.018,-1.675 1.277,-3.051 2.934,-3.181c0.221,0.762 0.762,1.381 1.476,1.701c-0.588,0.713 -0.942,1.624 -0.933,2.616c0.016,1.027 0.411,1.961 1.054,2.666l5.013,-3.833c0.064,-0.325 0.172,-0.629 0.311,-0.917c0.095,0.009 0.188,0.025 0.285,0.025c0.009,0 0.016,-0.003 0.025,-0.003c0.227,-0.002 0.448,-0.03 0.66,-0.088l1.644,-1.257c0.234,-0.404 0.365,-0.873 0.36,-1.37c-0.004,-0.119 -0.02,-0.234 -0.035,-0.344c-0.389,0.587 -1.052,0.985 -1.816,0.994l-0.029,0c-1.193,0 -2.169,-0.961 -2.183,-2.156c-0.015,-0.97 0.621,-1.794 1.503,-2.084c-0.427,-0.917 -1.352,-1.551 -2.428,-1.551l-0.038,0c-1.18,0.016 -2.161,0.778 -2.516,1.827c-0.643,-0.609 -1.054,-1.456 -1.065,-2.412c-0.002,-0.292 0.042,-0.564 0.106,-0.831c-0.396,-0.17 -0.835,-0.272 -1.297,-0.272" style="fill:#fff;fill-rule:nonzero;"/><path d="M101.32,56.01l2.969,-6.325l2.967,5.492c-2.589,0.365 -5.004,0.701 -5.936,0.833m8.108,-1.137l2.969,-6.328l2.967,5.497c-0.804,0.113 -3.265,0.455 -5.936,0.831m-8.353,-1.065l0,-10.072l2.529,4.679l-2.529,5.393Zm6.652,-0.195l-2.826,-5.231l2.826,-6.025l0,11.256Zm1.16,-0.307l0,-11.258l2.825,5.231l-2.825,6.027Zm6.65,-1.381l-2.53,-4.681l2.53,-5.391l0,10.072Zm-8.362,-11.114l-2.961,6.305l-2.956,-5.477c0.813,-0.115 3.259,-0.457 5.917,-0.828m8.105,-1.14l-2.958,6.307l-2.956,-5.479c2.578,-0.358 4.978,-0.694 5.914,-0.828m-9.06,-3.078l0,-4.838l3.913,-0.548l0,4.838l-3.913,0.548Zm-37.363,-17.469l-0.784,0.844c1.16,0.045 2.58,0.095 4.186,0.155l0.966,-0.837l-0.782,0.844c1.292,0.048 2.7,0.099 4.184,0.154l0.966,-0.837l-0.782,0.844c1.345,0.049 2.75,0.102 4.186,0.155l0.968,-0.84l-0.782,0.846c1.374,0.051 2.779,0.102 4.184,0.153l0.965,-0.838l-0.782,0.847c1.403,0.05 2.808,0.099 4.187,0.152l0.965,-0.837l-0.782,0.844c1.434,0.053 2.839,0.106 4.187,0.154l0.965,-0.835l-0.782,0.842c1.478,0.053 2.888,0.106 4.185,0.155l0.965,-0.84l-0.782,0.846c1.591,0.06 3.011,0.111 4.184,0.155l0.966,-0.838l-0.78,0.844c1.5,0.056 2.576,0.095 3.066,0.113c-2.235,2.165 -10.352,10.017 -10.805,10.454c-0.093,-0.002 -0.807,-0.028 -1.986,-0.073l-0.181,0.193c-0.725,-0.025 -1.573,-0.056 -2.515,-0.091l0.224,-0.192c-0.588,-0.022 -1.224,-0.044 -1.898,-0.071l-0.181,0.197c-0.794,-0.031 -1.635,-0.06 -2.515,-0.093l0.224,-0.194c-0.612,-0.023 -1.246,-0.047 -1.896,-0.069l-0.181,0.194c-0.818,-0.028 -1.657,-0.059 -2.514,-0.092l0.223,-0.195c-0.623,-0.022 -1.255,-0.044 -1.898,-0.068l-0.181,0.194c-0.829,-0.031 -1.668,-0.059 -2.514,-0.093l0.223,-0.192c-0.63,-0.024 -1.264,-0.046 -1.898,-0.07l-0.181,0.196c-0.837,-0.031 -1.679,-0.062 -2.514,-0.097l0.223,-0.19c-0.634,-0.024 -1.266,-0.046 -1.896,-0.071l-0.181,0.197c-0.848,-0.033 -1.688,-0.062 -2.514,-0.093l0.223,-0.194c-0.64,-0.022 -1.274,-0.047 -1.897,-0.069l-0.182,0.195c-0.863,-0.034 -1.703,-0.062 -2.514,-0.093l0.223,-0.195c-0.649,-0.022 -1.283,-0.046 -1.895,-0.068l-0.181,0.194c-0.895,-0.033 -1.735,-0.064 -2.514,-0.09l0.223,-0.195c-0.674,-0.026 -1.308,-0.048 -1.898,-0.07l-0.179,0.192c-1.032,-0.033 -1.885,-0.066 -2.516,-0.089l0.223,-0.194c-0.871,-0.033 -1.509,-0.055 -1.854,-0.068c2.234,-2.163 10.353,-10.017 10.806,-10.457c0.117,0.005 1.244,0.047 3.06,0.113l0.967,-0.838Zm-4.712,-1.047l-11.873,11.486l-0.76,0.736l2.073,1.734c5.75,0.214 39.68,1.465 41.167,1.518l0,23.235c-1.169,-0.044 -19.656,-0.727 -31.705,-1.169l0,1.745l-0.016,0l1.07,0.04l31.574,1.162l25.924,-3.636l0,-24.98l1.471,-0.204l-14.605,-10.034l-22.908,-0.844l-7.467,-0.274l-4.861,-0.181l-7.469,-0.276l-1.615,-0.058Z" style="fill:#3d312d;fill-rule:nonzero;"/><path d="M104.288,49.685l-2.97,6.322c0.933,-0.128 3.35,-0.468 5.939,-0.83l-2.969,-5.492Zm8.108,-1.14l-2.967,6.329c2.668,-0.375 5.129,-0.722 5.934,-0.831l-2.967,-5.498Zm-11.323,-4.808l0,10.072l2.53,-5.39l-2.53,-4.682Zm6.652,-1.381l-2.825,6.025l2.825,5.232l0,-11.257Zm1.16,-0.309l0,11.259l2.826,-6.025l-2.826,-5.234Zm6.65,-0.192l-2.527,5.388l2.527,4.682l0,-10.07Zm-8.362,-1.047c-2.656,0.373 -5.104,0.718 -5.917,0.828l2.959,5.479l2.958,-6.307Zm8.108,-1.136c-0.937,0.131 -3.338,0.469 -5.917,0.831l2.959,5.474l2.958,-6.305Z" style="fill:#fff;fill-rule:nonzero;"/><path d="M87.651,51.922l-4.425,-0.164l0,-5.059l4.425,0.164l0,5.059Zm-12.398,-0.457l-4.425,-0.164l0,-5.061l4.425,0.163l0,5.062Zm-21.671,-19.429l10.651,8.932l-1.188,0.166l0,14.484c12.049,0.444 30.538,1.124 31.707,1.166l0,-23.232c-1.487,-0.055 -35.417,-1.304 -41.17,-1.516" style="fill:#fff;fill-rule:nonzero;"/><path d="M83.226,46.699l0,5.059l4.425,0.163l0,-5.059l-4.425,-0.163Z" style="fill:#3d312d;fill-rule:nonzero;"/><path d="M110.132,31.208l-3.912,0.548l0,4.838l3.912,-0.55l0,-4.836Z" style="fill:#fff;fill-rule:nonzero;"/><path d="M70.827,46.239l0,5.061l4.425,0.164l0,-5.062l-4.425,-0.163Z" style="fill:#3d312d;fill-rule:nonzero;"/><path d="M103.027,21.256l-9.726,10.494c1.18,0.046 1.894,0.07 1.986,0.072c0.453,-0.437 8.57,-8.289 10.808,-10.452c-0.49,-0.019 -1.568,-0.059 -3.068,-0.114m-4.368,-0.16l-9.728,10.494c0.676,0.025 1.311,0.047 1.898,0.069l12.014,-10.41c-1.175,-0.042 -2.594,-0.095 -4.184,-0.153m-4.37,-0.163l-9.725,10.496c0.651,0.024 1.283,0.047 1.895,0.071l12.014,-10.41c-1.297,-0.051 -2.704,-0.102 -4.184,-0.157m-4.37,-0.161l-9.725,10.496c0.643,0.024 1.275,0.049 1.9,0.068l12.012,-10.407c-1.348,-0.051 -2.753,-0.102 -4.187,-0.157m-4.37,-0.159l-9.723,10.494c0.634,0.026 1.268,0.046 1.896,0.07l12.014,-10.412c-1.379,-0.051 -2.782,-0.102 -4.187,-0.152m-4.368,-0.159l-9.725,10.494c0.63,0.022 1.262,0.044 1.898,0.068l12.012,-10.41c-1.405,-0.051 -2.808,-0.104 -4.185,-0.152m-4.37,-0.164l-9.725,10.496c0.625,0.022 1.257,0.047 1.9,0.071l12.012,-10.41c-1.438,-0.055 -2.843,-0.108 -4.187,-0.157m-4.37,-0.161l-9.722,10.496c0.611,0.022 1.246,0.049 1.895,0.069l12.012,-10.408c-1.483,-0.058 -2.89,-0.106 -4.185,-0.157m-4.367,-0.161l-9.723,10.496c0.587,0.024 1.224,0.046 1.895,0.07l12.012,-10.412c-1.604,-0.059 -3.027,-0.108 -4.184,-0.154m-3.246,-0.12c-0.45,0.442 -8.569,8.294 -10.805,10.459c0.345,0.013 0.983,0.033 1.853,0.066l12.012,-10.412c-1.814,-0.064 -2.943,-0.108 -3.06,-0.113" style="fill:#fff;fill-rule:nonzero;"/><path d="M103.809,20.412l-0.966,0.837l-12.012,10.412l-0.225,0.195c0.943,0.031 1.79,0.062 2.514,0.09l0.181,-0.194l9.726,-10.494l0.782,-0.846Zm-4.368,-0.159l-0.966,0.837l-12.016,10.41l-0.223,0.19c0.882,0.035 1.721,0.069 2.516,0.095l0.182,-0.194l9.725,-10.494l0.782,-0.844Zm-4.37,-0.164l-0.965,0.838l-12.012,10.41l-0.226,0.194c0.858,0.035 1.697,0.064 2.517,0.093l0.181,-0.197l9.725,-10.494l0.78,-0.844Zm-4.368,-0.161l-0.967,0.837l-12.014,10.41l-0.221,0.195c0.844,0.035 1.683,0.062 2.514,0.093l0.181,-0.195l9.725,-10.496l0.782,-0.844Zm-4.37,-0.161l-0.967,0.837l-12.012,10.414l-0.223,0.193c0.835,0.028 1.677,0.062 2.514,0.095l0.181,-0.197l9.725,-10.496l0.782,-0.846Zm-4.37,-0.159l-0.965,0.837l-12.012,10.412l-0.223,0.192c0.826,0.031 1.664,0.062 2.512,0.093l0.183,-0.194l9.723,-10.494l0.782,-0.846Zm-4.37,-0.162l-0.965,0.838l-12.012,10.41l-0.223,0.194c0.811,0.033 1.65,0.062 2.514,0.093l0.181,-0.197l9.723,-10.494l0.782,-0.844Zm-4.367,-0.161l-0.968,0.837l-12.009,10.413l-0.226,0.192c0.782,0.031 1.622,0.06 2.514,0.093l0.182,-0.195l9.725,-10.496l0.782,-0.844Zm-4.37,-0.161l-0.966,0.837l-12.014,10.415l-0.223,0.194c0.634,0.02 1.485,0.053 2.517,0.091l0.181,-0.195l9.723,-10.496l0.782,-0.846Z" style="fill:#3d312d;fill-rule:nonzero;"/><path d="M52.239,52.511l0,-4.836l3.913,-0.55l0,4.838l-3.913,0.548Zm-17.753,-17.334c-1.978,1.513 -6.619,5.066 -9.823,7.516l-2.746,-0.102l1.586,0.06l0,16.225l22.767,0.839l16.762,-2.35l0.013,-0.003l0,-1.745l0,-14.482l-16.777,2.351l-0.376,-0.013c-2.211,-1.854 -5.103,-4.28 -7.33,-6.146c2.048,1.718 4.659,3.908 6.787,5.691l0,14.914l-20.091,-0.738l0,-14.954c3.157,-2.417 7.37,-5.64 9.228,-7.063" style="fill:#3d312d;fill-rule:nonzero;"/><path d="M46.499,41.691l-8.236,-7.77l10.097,7.512c-0.999,0.137 -1.693,0.234 -1.861,0.258m3.915,-0.55l-8.236,-7.77l10.096,7.512c-0.642,0.09 -1.268,0.176 -1.86,0.258m3.917,-0.55l-8.236,-7.77l10.096,7.512c-0.6,0.086 -1.226,0.17 -1.86,0.258m3.917,-0.548l-8.238,-7.77l10.057,7.481l0.035,0.033c-0.462,0.062 -1.103,0.15 -1.854,0.256m-6.736,-9.743l-16.56,2.322l-0.844,0.645l-3.237,2.477l-1.646,1.257l-1.281,0.979l-5.013,3.837l-1.012,0.773l2.744,0.102c3.204,-2.448 7.845,-6.003 9.822,-7.514c0.361,-0.276 0.632,-0.486 0.791,-0.607c0.418,0.351 1.679,1.407 3.286,2.755c2.229,1.867 5.118,4.295 7.33,6.148l0.378,0.011l16.777,-2.351l1.188,-0.167l-10.65,-8.932l-2.073,-1.735Z" style="fill:#3d312d;fill-rule:nonzero;"/><path d="M40.974,57.771l-11.38,-0.418l5.689,-4.018l5.691,4.436Zm0.985,-0.694l-5.688,-4.438l5.688,-4.021l0,8.459Zm-13.317,-0.466l0,-8.457l5.691,4.438l-5.691,4.019Zm6.676,-4.712l-5.688,-4.439l11.377,0.418l-5.689,4.021Zm2.002,-9.617l-4.039,-0.146l0,-3.926l4.039,0.15l0,3.922Zm-2.044,-7.708c-0.159,0.121 -0.43,0.327 -0.791,0.603c-1.858,1.423 -6.071,4.646 -9.23,7.063l0,14.952l20.091,0.74l0,-14.917c-2.125,-1.78 -4.736,-3.972 -6.787,-5.689c-1.604,-1.345 -2.867,-2.403 -3.283,-2.752" style="fill:#fff;fill-rule:nonzero;"/><path d="M56.153,47.126l-3.913,0.548l0,4.836l3.913,-0.548l0,-4.836Z" style="fill:#fff;fill-rule:nonzero;"/><path d="M33.282,38.213l0,3.922l4.04,0.15l0,-3.926l-4.04,-0.146Z" style="fill:#3d312d;fill-rule:nonzero;"/><path d="M35.284,53.335l-5.689,4.017l11.38,0.419l-5.691,-4.436Zm6.676,-4.717l-5.689,4.021l5.689,4.434l0,-8.455Zm-13.317,-0.464l0,8.455l5.691,-4.014l-5.691,-4.441Zm0.987,-0.693l5.689,4.438l5.689,-4.021l-11.378,-0.417Z" style="fill:#3d312d;fill-rule:nonzero;"/><path d="M38.262,33.922l8.236,7.77c0.168,-0.024 0.862,-0.122 1.861,-0.261l-10.097,-7.509Zm3.917,-0.55l8.236,7.77c0.59,-0.084 1.218,-0.17 1.861,-0.261l-10.097,-7.509Zm3.917,-0.55l8.236,7.77c0.634,-0.089 1.257,-0.175 1.858,-0.261l-10.094,-7.509Zm3.913,-0.548l8.24,7.77c0.752,-0.106 1.392,-0.195 1.852,-0.259l-0.036,-0.031l-10.056,-7.48Z" style="fill:#fff;fill-rule:nonzero;"/></g></g></svg>