<?xml version="1.0" encoding="UTF-8" standalone="no"?><!DOCTYPE svg PUBLIC "-//W3C//DTD SVG 1.1//EN" "http://www.w3.org/Graphics/SVG/1.1/DTD/svg11.dtd"><svg width="100%" height="100%" viewBox="0 0 89 57" version="1.1" xmlns="http://www.w3.org/2000/svg" xmlns:xlink="http://www.w3.org/1999/xlink" xml:space="preserve" xmlns:serif="http://www.serif.com/" style="fill-rule:evenodd;clip-rule:evenodd;stroke-linejoin:round;stroke-miterlimit:1.41421;"><path d="M82.339,55.437c-0.302,-0.042 -0.614,-0.086 -0.936,-0.13c0.196,-0.093 0.428,-0.192 0.691,-0.281c-0.247,0.044 -0.532,0.148 -0.806,0.265c-0.128,-0.017 -0.259,-0.035 -0.389,-0.053l0.21,-0.207l-0.318,0.194c-0.093,-0.011 -0.184,-0.024 -0.276,-0.035c0.035,-0.08 0.064,-0.157 0.081,-0.232c0.228,-0.067 0.478,-0.135 0.738,-0.19c-0.183,0.011 -0.448,0.068 -0.729,0.143c0.02,-0.134 -0.011,-0.256 -0.126,-0.324c0.184,-0.111 0.387,-0.226 0.617,-0.334c-0.462,0.124 -1.059,0.501 -1.483,0.8c-0.02,-0.02 -0.037,-0.042 -0.059,-0.062l0.55,-0.689l-0.696,0.556c-0.013,-0.011 -0.029,-0.022 -0.042,-0.033c0.042,-0.084 0.082,-0.172 0.119,-0.263c0.124,-0.028 0.252,-0.059 0.382,-0.088c-0.101,0.006 -0.227,0.026 -0.369,0.055c0.08,-0.201 0.128,-0.402 0.106,-0.557c0.009,-0.004 0.018,-0.008 0.025,-0.013c-0.007,0.002 -0.016,0.007 -0.025,0.009c-0.015,-0.102 -0.059,-0.186 -0.15,-0.236c0.016,0.095 0.013,0.19 0,0.287c-0.265,0.097 -0.554,0.252 -0.826,0.422c-0.049,-0.075 -0.104,-0.148 -0.164,-0.217l0.173,-0.216l-0.215,0.17c-0.086,-0.093 -0.187,-0.172 -0.3,-0.232c0.004,-0.02 0.009,-0.04 0.011,-0.062c0.066,-0.015 0.133,-0.031 0.199,-0.046c-0.06,0.002 -0.126,0.011 -0.195,0.019c0.009,-0.068 0.009,-0.13 0,-0.187c0.062,-0.033 0.124,-0.067 0.188,-0.098c-0.059,0.016 -0.126,0.036 -0.194,0.065c-0.02,-0.087 -0.064,-0.153 -0.142,-0.199c0.014,0.086 0.011,0.172 0,0.258c-0.172,0.082 -0.366,0.188 -0.563,0.307c-0.099,0.027 -0.201,0.053 -0.305,0.084c-0.055,-0.081 -0.119,-0.159 -0.19,-0.227c0.214,-0.318 0.497,-0.683 0.862,-1.041c0.024,-0.013 0.046,-0.026 0.07,-0.04c-0.015,0.007 -0.033,0.011 -0.05,0.018c-0.387,0.122 -0.82,0.345 -1.249,0.61l0.098,-0.343l-0.243,0.433c-0.129,0.082 -0.254,0.166 -0.378,0.252c0.015,-0.294 0.009,-0.594 -0.04,-0.848l0.022,-0.031l-0.024,0.022c-0.055,-0.287 -0.161,-0.515 -0.354,-0.612c0.1,0.25 0.146,0.521 0.157,0.789l-0.713,0.645c-0.069,-0.088 -0.14,-0.177 -0.215,-0.263c0.212,-0.603 0.325,-1.217 0.095,-1.571c0.204,-0.115 0.416,-0.221 0.639,-0.311c-0.259,-0.025 -0.535,0.028 -0.82,0.132c-0.576,0.212 -1.18,0.645 -1.719,1.114c-0.161,-0.215 -0.346,-0.409 -0.554,-0.564c0.711,-0.333 1.496,-0.649 2.326,-0.897c-0.698,-0.006 -1.65,0.29 -2.633,0.707c-0.025,-0.011 -0.051,-0.022 -0.075,-0.031c0.172,-0.645 0.439,-1.314 0.852,-1.877c-0.618,0.192 -1.058,1.153 -1.354,2.162c-0.148,0.069 -0.298,0.14 -0.446,0.213l-0.232,-1.317l-0.08,1.471c-0.141,0.071 -0.28,0.142 -0.417,0.214c-0.051,-0.174 -0.106,-0.349 -0.164,-0.523l0.548,-0.778l-0.612,0.592c-0.051,-0.143 -0.104,-0.283 -0.159,-0.422c0.504,-0.545 1.109,-1.098 1.823,-1.588c-0.634,0.157 -1.319,0.638 -1.975,1.237c-0.069,-0.15 -0.139,-0.292 -0.215,-0.424c0.027,-0.011 0.053,-0.024 0.082,-0.035c-0.035,-0.003 -0.068,-0.005 -0.104,-0.005c-0.044,-0.077 -0.092,-0.152 -0.139,-0.223c0.108,-0.159 0.221,-0.32 0.345,-0.477c-0.15,0.093 -0.296,0.21 -0.44,0.347c-0.053,-0.073 -0.108,-0.14 -0.165,-0.199c0.041,0.082 0.081,0.161 0.121,0.241c-0.128,0.128 -0.254,0.271 -0.378,0.426c-0.4,0.137 -0.815,0.384 -1.213,0.68c-0.064,-0.623 -0.205,-1.204 -0.468,-1.648c0.133,0.67 0.177,1.302 0.17,1.878c-0.117,0.095 -0.232,0.195 -0.345,0.294c-0.134,-0.479 -0.327,-0.901 -0.603,-1.16c0.051,-0.046 0.1,-0.097 0.148,-0.143c-0.064,0.024 -0.13,0.059 -0.198,0.099c-0.027,-0.022 -0.051,-0.044 -0.078,-0.062c0.168,-0.512 0.4,-1.021 0.725,-1.465c-0.61,0.19 -1.041,1.118 -1.337,2.106c-0.143,0.15 -0.285,0.314 -0.426,0.488l-0.071,-0.406c0.546,-1.189 1.388,-2.705 2.547,-3.917c-0.872,0.329 -1.866,1.734 -2.682,3.15l-0.066,-0.362l-0.026,0.523c-0.188,0.329 -0.365,0.656 -0.526,0.97c-0.095,-0.309 -0.203,-0.621 -0.323,-0.917c-0.011,-0.42 -0.02,-0.875 -0.028,-1.343c0.136,-0.837 0.351,-1.717 0.684,-2.552c-0.282,0.261 -0.517,0.698 -0.709,1.235c-0.024,-1.707 -0.026,-3.351 0.038,-4.001c0.159,-1.579 0.552,-2.684 0.079,-7.734c-0.002,-0.018 -0.002,-0.033 -0.004,-0.049c-1.246,0.634 -2.574,1.12 -3.833,1.317c0.172,1.491 0.371,3.024 0.601,4.178c0.422,2.107 0.773,6.431 0.961,9.069c-0.016,0.008 -0.031,0.017 -0.044,0.026c-0.316,-0.747 -0.685,-1.396 -1.085,-1.701c0.364,0.603 0.645,1.242 0.861,1.845c-0.393,0.269 -0.777,0.594 -1.122,0.916c-0.267,-0.185 -0.526,-0.329 -0.755,-0.402c0.152,-0.83 0.444,-1.794 1.007,-2.562c-0.15,0.046 -0.287,0.139 -0.415,0.263c-0.537,0.154 -1.07,0.636 -1.545,1.219l-0.075,-0.424l-0.028,0.554c-0.204,0.259 -0.394,0.533 -0.568,0.805c-0.219,-0.685 -0.497,-1.377 -0.829,-1.861c0.062,-0.351 0.153,-0.7 0.287,-1.034c-0.225,0.146 -0.393,0.411 -0.516,0.743c-0.005,-0.007 -0.012,-0.013 -0.016,-0.02c0.004,0.011 0.009,0.02 0.013,0.029c-0.194,0.53 -0.278,1.232 -0.305,1.928c-0.256,-0.256 -0.505,-0.481 -0.731,-0.634l-0.048,-0.115c0.227,-0.276 0.479,-0.548 0.755,-0.799c-0.258,0.097 -0.546,0.324 -0.833,0.618l-0.059,-0.137l0.028,0.168c-0.221,0.23 -0.444,0.499 -0.656,0.78c-0.033,-0.049 -0.066,-0.095 -0.099,-0.141c0.523,-1.238 1.44,-3.045 2.781,-4.448c-0.97,0.365 -2.088,2.059 -2.947,3.619c-0.038,-2.472 -0.046,-5.72 0.144,-6.568c0.313,-1.421 1.657,-4.5 1.498,-6.473c-0.062,-0.798 0.015,-1.878 0.24,-3.031c0.299,-1.304 0.725,-2.643 1.33,-3.851c0.102,-0.192 0.21,-0.376 0.325,-0.555c-1.016,2.188 -1.348,5.886 -1.48,7.136c0.219,0.111 0.303,0.14 0.532,0.221c2.852,1.012 7.178,-1.109 9.683,-3.263c0.975,-0.004 1.87,0.02 2.314,0.102c0.422,0.079 0.987,0.713 1.548,1.526c0.46,-0.777 1.045,-1.513 1.801,-2.136c-0.988,1.253 -1.551,3.002 -1.551,3.002c-0.042,0.849 -0.088,1.622 -0.141,2.232c-0.283,3.241 3.614,8.137 4.482,8.689c0.868,0.552 1.467,2.779 1.544,3.488c0.08,0.712 0.849,1.425 1.419,1.642c0.15,0.055 0.517,0.11 0.978,0.146c-0.377,-0.738 -0.636,-1.573 -1.02,-3.04c0.552,1.146 1.277,2.547 1.648,3.238c1.166,0.235 2.452,0.303 2.89,-0.042c0.382,-0.302 0.419,-0.068 0.848,-0.868c0.338,-0.632 0.024,-1.447 0.055,-1.67c0.25,-1.884 0.214,-4.328 0.214,-5.872c0,-2.254 1.147,-4.282 0.973,-6.604c-0.153,-1.992 0.563,-5.105 -1.9,-5.991c-0.683,-0.245 -1.529,-0.747 -2.165,-1.127c-0.442,0.84 -0.908,1.644 -1.2,2.041c0.446,-0.943 1.286,-2.755 1.46,-3.45c0.241,-0.957 -0.647,-4.719 -0.952,-4.797c-0.307,-0.075 -3.544,1.96 -3.334,3.235c0.148,0.899 0.517,3.393 0.723,4.783c-0.312,-1.123 -0.838,-3.674 -0.999,-4.653c-0.077,-0.479 0.013,-1.007 0.515,-1.597c0.024,-0.029 0.289,-0.703 0.314,-0.732c-2.599,-5.951 -6.001,-12.241 -6.001,-12.241c0,0 -1.001,-1.856 -1.122,-2.008c-1.58,-1.973 -5.841,-6.155 -12.392,-8.208c-6.55,-2.052 -17.917,-1.5 -22.89,-1.895c-1.697,-0.135 -7.262,-0.789 -10.023,-1.182c-2.762,-0.396 -8.762,0 -10.892,0.828c-2.132,0.829 -6.135,2.532 -5.998,7.063c0.137,4.578 -0.239,17.601 -1.58,20.522c-0.733,1.595 -1.135,3.849 -1.272,5.874c0.097,-0.558 0.196,-1.109 0.291,-1.592c-0.119,0.631 -0.225,1.327 -0.318,2.032c-0.013,0.274 -0.022,0.544 -0.026,0.804c0.167,-0.921 0.362,-1.953 0.534,-2.786c-0.21,1.052 -0.391,2.278 -0.534,3.427c0.008,0.601 0.046,1.147 0.11,1.595c0.102,-1.107 0.261,-2.726 0.407,-3.932c-0.162,1.414 -0.246,3.128 -0.288,4.555c0.025,0.091 0.047,0.17 0.071,0.245c0.102,-1.109 0.265,-2.797 0.418,-4.04c-0.157,1.352 -0.239,2.98 -0.283,4.372c0.006,0.011 0.011,0.022 0.017,0.031c0.1,-1.085 0.279,-2.967 0.442,-4.324c-0.159,1.401 -0.243,3.097 -0.278,4.525c0.084,-0.95 0.292,-3.182 0.479,-4.733c-0.17,1.487 -0.254,3.31 -0.293,4.781c0.079,-0.013 0.156,-0.073 0.234,-0.17c0.039,-1.021 0.126,-3.124 0.229,-4.608c-0.083,1.338 -0.083,2.942 -0.055,4.321c0.047,-0.099 0.091,-0.21 0.133,-0.336c0.053,-1.06 0.159,-3.055 0.272,-4.482c-0.089,1.204 -0.109,2.62 -0.104,3.894c0.017,-0.075 0.035,-0.15 0.051,-0.227c0.037,-0.793 0.159,-3.274 0.293,-4.955c-0.081,1.104 -0.106,2.388 -0.106,3.579c0.201,-2.026 0.579,-5.893 1.629,-9.27c1.104,-3.553 1.279,-9.315 1.341,-12.235c0.072,-3.442 0.304,-5.782 0.665,-7.823c0.908,-2.013 4.776,-2.28 4.776,-2.28c-2.565,0.523 -3.608,1.915 -3.608,1.915c-0.238,0.407 -1.772,2.901 -0.351,7.916c2.169,7.657 3.018,8.603 3.937,14.482c0.349,2.233 -1.96,7.77 -1.136,9.281c0.866,1.59 3.727,7.405 5.018,12.296c-0.151,0.46 -0.226,1.032 -0.255,1.613c-0.141,0.106 -0.282,0.212 -0.421,0.316l-0.4,-0.921l0.008,-0.024l-0.011,0.017l-0.106,-0.243l0.058,0.314l-0.559,0.813c-0.08,-0.119 -0.159,-0.236 -0.241,-0.351c0.409,-0.703 0.935,-1.452 1.611,-2.148c-0.652,0.31 -1.288,1.014 -1.85,1.827c-0.154,-0.194 -0.311,-0.371 -0.47,-0.519c0.106,-0.278 0.227,-0.559 0.367,-0.839c-0.197,0.185 -0.374,0.422 -0.533,0.693c-0.055,-0.046 -0.112,-0.088 -0.17,-0.126c0.159,-0.152 0.327,-0.3 0.508,-0.439c-0.596,0.104 -1.188,0.632 -1.71,1.277c-0.163,-0.407 -0.366,-0.771 -0.618,-1.05c0.185,0.444 0.324,0.877 0.428,1.295c-0.128,0.17 -0.249,0.345 -0.366,0.521c-0.221,-0.349 -0.478,-0.625 -0.772,-0.749c0.255,0.316 0.453,0.659 0.61,0.999c-0.084,0.135 -0.165,0.27 -0.243,0.4c-0.183,-0.283 -0.386,-0.526 -0.605,-0.687c-0.038,-0.846 0.029,-1.838 0.38,-2.715c-0.776,0.494 -0.862,2.359 -0.813,3.731l-0.921,-2.134l0.161,0.888c-0.126,0.263 -0.181,0.621 -0.197,1.01c-0.024,-0.042 -0.048,-0.087 -0.073,-0.128c0.022,-0.016 0.042,-0.029 0.064,-0.045c-0.026,0.003 -0.055,0.009 -0.081,0.014c-0.491,-0.847 -1.103,-1.726 -1.699,-2.101c0.656,0.749 1.126,1.535 1.445,2.18c-0.109,0.049 -0.215,0.113 -0.316,0.19l-0.371,-0.758l0.194,0.904c-0.007,0.004 -0.011,0.009 -0.018,0.015c-0.276,-0.196 -0.559,-0.388 -0.833,-0.552c-0.068,-0.084 -0.139,-0.166 -0.212,-0.243c0.016,-0.051 0.033,-0.099 0.053,-0.148c-0.042,0.02 -0.077,0.049 -0.112,0.082c-0.46,-0.497 -0.944,-0.897 -1.388,-1.028c0.387,0.312 0.729,0.659 1.028,1.006c-0.137,-0.058 -0.268,-0.104 -0.383,-0.128c0.177,0.092 0.349,0.19 0.517,0.291c0.025,0.029 0.049,0.058 0.071,0.089c-0.115,0.265 -0.144,0.645 -0.133,1.027c-0.152,-0.095 -0.304,-0.188 -0.461,-0.279l-0.109,-0.192c0.157,-0.159 0.338,-0.311 0.551,-0.444c-0.292,0.025 -0.57,0.192 -0.822,0.42c-0.38,-0.21 -0.762,-0.398 -1.127,-0.544c0.026,-0.128 0.062,-0.254 0.11,-0.375c-0.119,0.06 -0.205,0.17 -0.267,0.314c-0.382,-0.142 -0.733,-0.226 -1.023,-0.223c0.334,0.117 0.654,0.254 0.963,0.399c-0.068,0.252 -0.083,0.568 -0.072,0.884l-0.02,-0.007c0.006,0.005 0.013,0.007 0.02,0.023c-0.078,0.028 -0.151,0.066 -0.217,0.11l-0.402,-0.716l0.241,0.844c-0.062,0.06 -0.117,0.124 -0.17,0.192c-0.354,-0.506 -0.807,-1.062 -1.224,-1.305c0.537,0.521 0.901,1.062 1.124,1.449c-0.035,0.057 -0.068,0.115 -0.099,0.172c-0.208,-0.143 -0.438,-0.296 -0.67,-0.433c-0.046,-0.157 -0.068,-0.318 -0.044,-0.47c-0.121,0.07 -0.161,0.199 -0.154,0.353c-0.25,-0.139 -0.484,-0.249 -0.665,-0.294c0.238,0.117 0.466,0.248 0.673,0.376c0.005,0.031 0.011,0.062 0.018,0.093c-0.117,0.048 -0.223,0.119 -0.316,0.203l-0.203,-0.164l0.163,0.206c-0.066,0.066 -0.128,0.137 -0.181,0.212c-0.296,-0.181 -0.609,-0.345 -0.886,-0.435c-0.004,-0.066 -0.002,-0.133 0.009,-0.197c-0.21,0.119 -0.183,0.409 -0.075,0.716c-0.097,-0.018 -0.186,-0.029 -0.261,-0.033c0.093,0.02 0.182,0.04 0.272,0.062c0.058,0.159 0.137,0.322 0.214,0.466l-0.799,-0.641l0.583,0.731c-0.033,0.005 -0.069,0.009 -0.1,0.016c-0.424,-0.298 -1.016,-0.672 -1.478,-0.795c0.612,0.285 1.054,0.607 1.313,0.819c-0.062,0.009 -0.124,0.018 -0.184,0.029c-0.479,-0.155 -1.045,-0.316 -1.365,-0.334c0.471,0.102 0.908,0.237 1.237,0.354c-2.808,0.435 -4.372,0.782 -4.35,0.901c0.062,0.517 19.802,-1.97 44.225,-1.924c24.421,-0.046 44.163,2.441 44.223,1.924c0.027,-0.143 -2.2,-0.61 -6.109,-1.162m-0.41,-15.92c0,0 0.87,0.334 1.208,0.944c0.336,0.609 0.179,1.5 0.179,1.5c0,0 -1.052,-0.186 -1.387,-0.798c-0.338,-0.61 0,-1.646 0,-1.646m-0.449,12.677l0.347,-0.676c0.04,-0.08 0.113,-0.142 0.199,-0.17c0.179,-0.06 0.488,-0.106 0.689,0.168c0.27,0.364 0.588,0.514 0.371,0.93c-0.046,0.093 -0.132,0.159 -0.234,0.181l-0.831,0.183c-0.145,0.031 -0.296,-0.033 -0.373,-0.163l-0.157,-0.122c-0.06,-0.101 -0.064,-0.227 -0.011,-0.331m-75.395,-19.994c0.084,-0.404 0.156,-0.711 0.212,-0.857c-0.075,0.256 -0.146,0.546 -0.212,0.857m0.424,-0.8c-0.078,0.254 -0.153,0.539 -0.226,0.851c0.091,-0.402 0.168,-0.707 0.226,-0.851m-0.299,1.931c0.058,-0.406 0.109,-0.718 0.153,-0.866c-0.055,0.261 -0.106,0.55 -0.153,0.866m0.202,0.758c0.055,-0.406 0.108,-0.716 0.152,-0.866c-0.057,0.258 -0.108,0.552 -0.152,0.866m0.178,0.08c0.056,-0.407 0.109,-0.716 0.153,-0.866c-0.058,0.26 -0.108,0.552 -0.153,0.866m0.199,-0.206c0.058,-0.406 0.109,-0.718 0.153,-0.866c-0.055,0.259 -0.106,0.55 -0.153,0.866m0.137,-0.007c0.036,-0.406 0.071,-0.718 0.106,-0.868c-0.042,0.261 -0.077,0.553 -0.106,0.868m0.356,-0.49c0.04,-0.407 0.08,-0.72 0.117,-0.87c-0.046,0.262 -0.084,0.554 -0.117,0.87m0.241,-1.29c0.04,-0.409 0.077,-0.72 0.115,-0.871c-0.045,0.261 -0.084,0.555 -0.115,0.871m-1.953,23.338c-0.044,0.007 -0.086,0.014 -0.131,0.02c-0.084,-0.115 -0.181,-0.258 -0.262,-0.415c0.178,0.049 0.346,0.099 0.501,0.15c-0.042,0.086 -0.079,0.17 -0.108,0.245m0.13,-0.291c-0.185,-0.055 -0.373,-0.108 -0.546,-0.148c-0.088,-0.175 -0.154,-0.365 -0.17,-0.555c0.334,0.164 0.615,0.334 0.84,0.489c-0.047,0.07 -0.089,0.143 -0.124,0.214m0.457,-0.363l0.243,0.308c-0.035,0.013 -0.072,0.031 -0.106,0.048c-0.079,-0.055 -0.161,-0.11 -0.249,-0.166c0.031,-0.061 0.068,-0.125 0.112,-0.19m-0.057,0.489c-0.051,-0.016 -0.102,-0.033 -0.152,-0.049c0.015,-0.051 0.033,-0.106 0.057,-0.161c0.069,0.051 0.13,0.099 0.183,0.141c-0.031,0.022 -0.059,0.044 -0.088,0.069m0.424,0.031c-0.055,-0.042 -0.115,-0.084 -0.179,-0.128c0.025,-0.018 0.051,-0.038 0.078,-0.056l0.141,0.177c-0.013,0.002 -0.027,0.004 -0.04,0.007m-0.311,-0.597c0.059,-0.077 0.13,-0.152 0.212,-0.227c0.057,0.203 0.161,0.422 0.263,0.609l-0.475,-0.382Zm0.855,0.504c-0.133,-0.166 -0.334,-0.444 -0.451,-0.751c0.228,0.15 0.426,0.296 0.585,0.417c-0.057,0.124 -0.101,0.241 -0.134,0.334m0.508,-0.559c0.026,-0.06 0.059,-0.122 0.099,-0.181l0.1,0.351c-0.02,0.013 -0.04,0.027 -0.06,0.042c-0.044,-0.068 -0.091,-0.139 -0.139,-0.212m0.265,-0.398c0.046,-0.051 0.099,-0.104 0.157,-0.152c0.009,0.177 0.024,0.349 0.044,0.51l-0.201,-0.358Zm1.584,-0.366c0.137,0.088 0.269,0.176 0.395,0.262l0.102,0.361c-0.104,-0.042 -0.21,-0.08 -0.309,-0.111c0.073,-0.049 0.15,-0.097 0.234,-0.139c-0.093,0.009 -0.19,0.037 -0.285,0.079c-0.077,-0.103 -0.157,-0.207 -0.241,-0.313c0.033,-0.044 0.066,-0.093 0.104,-0.139m-0.033,0.448c-0.08,-0.02 -0.157,-0.035 -0.232,-0.049c0.029,-0.05 0.059,-0.101 0.093,-0.152c0.048,0.068 0.095,0.137 0.139,0.201m0.004,0.093c-0.088,0.053 -0.174,0.115 -0.256,0.183c-0.038,-0.024 -0.075,-0.046 -0.11,-0.071c0.03,-0.064 0.064,-0.132 0.103,-0.205c0.089,0.031 0.177,0.062 0.263,0.093m-0.177,-0.67c-0.022,0.025 -0.044,0.049 -0.066,0.073c-0.077,-0.09 -0.157,-0.174 -0.238,-0.252c0.103,0.06 0.205,0.12 0.304,0.179m-0.779,1.125c-0.053,-0.177 -0.115,-0.426 -0.157,-0.709c0.148,0.084 0.291,0.168 0.426,0.254c-0.106,0.165 -0.199,0.325 -0.269,0.455m-0.166,-0.762c-0.038,-0.281 -0.055,-0.59 -0.02,-0.897c0.152,0.077 0.301,0.154 0.444,0.234c0.144,0.152 0.274,0.305 0.389,0.453c-0.124,0.15 -0.239,0.307 -0.34,0.457c-0.166,-0.095 -0.327,-0.181 -0.473,-0.247m0.72,0.495c0.027,0.017 0.053,0.035 0.08,0.053c-0.058,0.05 -0.113,0.101 -0.164,0.152c0.022,-0.06 0.051,-0.13 0.084,-0.205m0.009,0.36c0.051,-0.071 0.113,-0.146 0.188,-0.226c0.026,0.02 0.053,0.04 0.079,0.06c-0.097,0.033 -0.183,0.093 -0.256,0.163l-0.011,0.003Zm0.181,-0.025c0.042,-0.033 0.089,-0.068 0.142,-0.101c0.033,0.026 0.066,0.048 0.097,0.073c-0.082,0.011 -0.159,0.02 -0.239,0.028m0.391,-0.046c-0.051,-0.038 -0.104,-0.073 -0.159,-0.11c0.007,-0.003 0.011,-0.007 0.018,-0.012c-0.011,0 -0.022,0 -0.033,0.003c-0.047,-0.033 -0.098,-0.067 -0.146,-0.1c0.068,-0.068 0.146,-0.134 0.234,-0.201c0.095,0.153 0.17,0.29 0.23,0.402c-0.049,0.005 -0.095,0.011 -0.144,0.018m0.349,-0.044c-0.064,-0.1 -0.132,-0.199 -0.207,-0.305c0.086,0.035 0.17,0.073 0.251,0.11l0.053,0.184c-0.033,0.004 -0.064,0.009 -0.097,0.011m0.36,-0.203l-0.17,-0.301c0.058,0.04 0.113,0.082 0.164,0.119c0.006,0.064 0.013,0.126 0.02,0.188l-0.014,-0.006m0.676,-0.142c-0.134,-0.09 -0.276,-0.183 -0.422,-0.276c-0.046,-0.32 -0.066,-0.68 -0.013,-1.032c0.261,0.347 0.48,0.683 0.659,0.983c-0.082,0.111 -0.155,0.219 -0.224,0.325m0.436,0.172c-0.051,0.007 -0.1,0.012 -0.151,0.018c0.031,-0.068 0.067,-0.141 0.106,-0.221c0.031,0.06 0.06,0.115 0.089,0.17c-0.016,0.011 -0.029,0.022 -0.044,0.033m0.026,-0.793c-0.106,-0.148 -0.216,-0.296 -0.331,-0.444c0.154,0.111 0.3,0.221 0.437,0.329c-0.035,0.038 -0.071,0.076 -0.106,0.115m0.371,0.533c-0.07,-0.102 -0.141,-0.21 -0.218,-0.318c0.044,-0.06 0.088,-0.122 0.137,-0.184c0.004,0.003 0.008,0.007 0.013,0.007l0.101,0.482l-0.033,0.013m0.279,-0.451l-0.146,-0.298c0.086,-0.089 0.179,-0.177 0.283,-0.259c0.128,0.268 0.232,0.506 0.309,0.703c0.004,0.073 0.011,0.144 0.018,0.214c-0.144,-0.115 -0.301,-0.236 -0.464,-0.36m1.009,0.526c-0.097,-0.203 -0.214,-0.435 -0.344,-0.683c-0.04,-0.371 -0.051,-0.788 0.002,-1.215l0.344,1.898l-0.002,0Zm0.811,-1.847c0.153,0.208 0.287,0.418 0.402,0.625c-0.108,0.062 -0.216,0.148 -0.322,0.252c-0.036,-0.261 -0.064,-0.559 -0.08,-0.877m0.17,1.432c-0.022,-0.12 -0.046,-0.259 -0.068,-0.411c0.097,-0.122 0.203,-0.243 0.318,-0.363c0.029,0.053 0.057,0.106 0.084,0.159c-0.128,0.224 -0.241,0.431 -0.334,0.615m4.447,-2.358l0.188,1.025c-0.137,0.109 -0.269,0.217 -0.402,0.323c-0.071,-0.122 -0.143,-0.243 -0.219,-0.362l0.433,-0.986Zm-3.676,2.172c0.042,-0.113 0.093,-0.239 0.153,-0.373c0.017,0.05 0.033,0.103 0.048,0.156c-0.068,0.073 -0.134,0.146 -0.199,0.221c0,-0.002 -0.002,-0.002 -0.002,-0.004m0.334,-0.767c0.066,-0.134 0.141,-0.276 0.223,-0.422c0.033,0.188 0.062,0.372 0.082,0.551c-0.06,0.05 -0.12,0.103 -0.177,0.159c-0.04,-0.098 -0.084,-0.193 -0.128,-0.288m0.214,0.504c0.038,-0.044 0.077,-0.088 0.117,-0.132c0.011,0.101 0.018,0.201 0.025,0.296c-0.025,0.006 -0.049,0.013 -0.071,0.022c-0.024,-0.062 -0.047,-0.124 -0.071,-0.186m0.546,0.038c-0.027,-0.166 -0.058,-0.332 -0.093,-0.495c0.088,-0.08 0.181,-0.157 0.281,-0.23c-0.069,0.239 -0.131,0.482 -0.188,0.725m0.234,-0.884c-0.004,0.011 -0.007,0.02 -0.009,0.031c-0.117,0.046 -0.236,0.113 -0.353,0.19c-0.053,-0.232 -0.113,-0.462 -0.184,-0.681c0.274,-0.43 0.617,-0.874 1.034,-1.279c0.051,0.058 0.1,0.115 0.148,0.173c-0.243,0.428 -0.444,0.941 -0.612,1.484c-0.174,-0.082 -0.336,-0.139 -0.477,-0.17c0.155,0.08 0.305,0.166 0.453,0.252m0.205,0.886c0.036,-0.217 0.078,-0.446 0.129,-0.681c0.059,0.038 0.119,0.078 0.176,0.115c-0.106,0.192 -0.21,0.382 -0.305,0.566m0.155,-0.795c0.106,-0.467 0.248,-0.959 0.433,-1.459c0.146,0.186 0.283,0.374 0.407,0.559c-0.224,0.332 -0.433,0.679 -0.628,1.021c-0.073,-0.042 -0.143,-0.084 -0.212,-0.121m0.307,1.243l-0.051,0.005c0.08,-0.217 0.179,-0.466 0.299,-0.738c0.057,0.042 0.115,0.084 0.17,0.128l-0.418,0.605Zm0.307,-0.866c0.131,-0.287 0.281,-0.594 0.46,-0.912c0.075,0.121 0.146,0.241 0.212,0.358l-0.473,0.689c-0.066,-0.046 -0.132,-0.091 -0.199,-0.135m0.822,-0.276c0.047,0.091 0.091,0.179 0.133,0.263c-0.135,0.113 -0.27,0.225 -0.398,0.336l0.265,-0.599Zm0.21,1.023c-0.044,-0.033 -0.086,-0.066 -0.13,-0.099c0.077,-0.08 0.159,-0.159 0.247,-0.243c0.051,0.114 0.095,0.223 0.133,0.32c-0.084,0.007 -0.166,0.013 -0.25,0.022m0.568,-0.128c-0.071,-0.137 -0.146,-0.281 -0.228,-0.429c0.086,-0.081 0.177,-0.165 0.27,-0.249l0.106,0.574c-0.049,0.035 -0.1,0.071 -0.148,0.104m0.61,-0.42l-0.239,-0.55c0.082,-0.073 0.166,-0.146 0.254,-0.219c-0.004,0.261 -0.002,0.513 0.007,0.754c-0.009,0.006 -0.016,0.011 -0.022,0.015m0.479,-2.101c0.042,0.164 0.082,0.318 0.121,0.468c-0.05,0.036 -0.101,0.071 -0.152,0.107c0.002,-0.188 0.013,-0.38 0.031,-0.575m-0.031,0.977c0.077,-0.062 0.157,-0.124 0.236,-0.186c0.076,0.285 0.142,0.539 0.199,0.762c-0.126,0.071 -0.254,0.146 -0.38,0.226c-0.026,-0.248 -0.046,-0.517 -0.055,-0.802m0.245,1.513c-0.028,0.002 -0.057,0.004 -0.088,0.007c-0.027,-0.153 -0.053,-0.327 -0.077,-0.522c0.125,-0.086 0.26,-0.174 0.397,-0.263c0.022,0.089 0.044,0.17 0.062,0.246c-0.108,0.187 -0.208,0.368 -0.294,0.532m3.201,-0.707c-0.055,-0.336 -0.123,-0.674 -0.209,-0.999c0.134,0.102 0.262,0.206 0.386,0.312c-0.064,0.225 -0.124,0.457 -0.177,0.687m0.44,0.002c0.02,-0.128 0.044,-0.258 0.069,-0.391c0.031,0.029 0.061,0.058 0.092,0.089c-0.055,0.101 -0.11,0.203 -0.161,0.302m0.117,-0.629c0.113,-0.526 0.268,-1.09 0.484,-1.662c0.104,0.263 0.197,0.524 0.276,0.773c-0.216,0.334 -0.42,0.679 -0.607,1.017c-0.051,-0.044 -0.102,-0.086 -0.153,-0.128m0.38,1.027c-0.022,0.002 -0.044,0.002 -0.066,0.004c0.035,-0.097 0.075,-0.201 0.119,-0.309c0.031,0.033 0.06,0.066 0.089,0.099l-0.142,0.206Zm0.294,-0.427c-0.046,-0.041 -0.091,-0.086 -0.137,-0.128c0.108,-0.254 0.236,-0.53 0.384,-0.819c0.042,0.148 0.078,0.289 0.113,0.426l-0.36,0.521Zm0.451,-1.325c0.161,-0.287 0.342,-0.586 0.545,-0.884l0.007,0.389c-0.009,-0.002 -0.02,-0.004 -0.029,-0.007c0.011,0.007 0.02,0.014 0.029,0.018l0.009,0.34l-0.407,0.59c-0.05,-0.148 -0.101,-0.298 -0.154,-0.446m0.276,0.826l0.292,-0.663l0.013,0.679c-0.08,0.066 -0.162,0.132 -0.239,0.196c-0.022,-0.068 -0.044,-0.141 -0.066,-0.212m0.247,0.844c-0.013,-0.046 -0.026,-0.095 -0.039,-0.141c0.035,-0.036 0.072,-0.073 0.11,-0.109l0.004,0.246c-0.024,0.002 -0.05,0.002 -0.075,0.004m0.652,-1.308c-0.026,0.02 -0.053,0.042 -0.079,0.064l-0.144,-0.656c0.09,0.064 0.179,0.128 0.265,0.192c-0.015,0.135 -0.029,0.27 -0.042,0.4m0.062,-0.572c-0.108,-0.064 -0.217,-0.121 -0.318,-0.168l-0.038,-0.172l0.073,-0.168l-0.084,0.124l-0.126,-0.577c0.239,-0.325 0.504,-0.652 0.798,-0.97c-0.133,0.63 -0.23,1.297 -0.305,1.931m0.325,-2.028c-0.303,0.17 -0.603,0.42 -0.893,0.727l-0.152,-0.701l0.017,0.849c-0.245,0.276 -0.481,0.585 -0.704,0.912c-0.111,-0.276 -0.228,-0.543 -0.349,-0.791c0.084,-0.201 0.172,-0.404 0.271,-0.605c-0.13,0.122 -0.249,0.265 -0.364,0.429c-0.232,-0.44 -0.486,-0.8 -0.756,-1.006c0.241,0.398 0.444,0.811 0.619,1.22c-0.283,0.47 -0.513,1.054 -0.698,1.672c-0.173,-0.128 -0.343,-0.245 -0.508,-0.338c-0.089,-0.302 -0.197,-0.59 -0.323,-0.852c-0.011,-0.056 -0.024,-0.113 -0.035,-0.173c0.148,-0.137 0.302,-0.272 0.468,-0.4c-0.172,0.031 -0.345,0.098 -0.515,0.193c-0.855,-4.008 -2.512,-8.139 -2.399,-9.271c0.08,-0.79 2.088,-4.707 3.276,-8.781c0.177,-0.59 3.104,-3.089 4.288,-3.681c1.185,-0.592 9.432,-1.54 9.432,-1.54c0,0 -7.419,1.46 -8.524,1.657c-0.954,0.172 -4.029,3.168 -4.847,3.981l-0.112,0.561c-0.011,-0.008 -0.022,-0.017 -0.031,-0.026c-0.482,1.509 -1.047,2.962 -1.562,4.222c0.934,1.464 3.115,5.176 4.286,10.105l0.247,1.085c-0.046,0.179 -0.09,0.362 -0.132,0.552m0.673,1.812c-0.17,0.119 -0.34,0.24 -0.51,0.366c0.024,-0.55 0.075,-1.182 0.172,-1.847l0.338,1.481Zm-0.98,-14.491c-0.299,0 -0.581,-0.128 -0.791,-0.34l1.42,0.075c-0.141,0.17 -0.371,0.265 -0.629,0.265m-0.836,-3.683l0.314,-0.309l-0.252,0.316l-0.062,-0.007Zm1.342,19.718c-0.016,0.011 -0.031,0.022 -0.047,0.033c-0.007,-0.217 -0.007,-0.466 -0.002,-0.751c0.007,-0.005 0.013,-0.011 0.018,-0.016c0.092,0.082 0.183,0.166 0.269,0.248c-0.086,0.172 -0.166,0.336 -0.238,0.486m0.338,-0.687c-0.071,-0.062 -0.142,-0.122 -0.213,-0.179c0.137,-0.113 0.281,-0.228 0.427,-0.343l0.017,0.073c-0.079,0.153 -0.159,0.303 -0.231,0.449m2.529,-2.81c-0.04,-0.173 -0.077,-0.345 -0.115,-0.515c0.113,-0.161 0.228,-0.321 0.349,-0.477c-0.088,0.311 -0.165,0.647 -0.234,0.992m0.583,2.432c-0.095,-0.376 -0.194,-0.778 -0.293,-1.195c0.192,0.254 0.364,0.508 0.519,0.755c-0.08,0.151 -0.155,0.296 -0.226,0.44m0.396,1.341c0.02,-0.035 0.044,-0.075 0.068,-0.113c0.042,0.033 0.082,0.071 0.122,0.104c-0.064,0.002 -0.128,0.007 -0.19,0.009m0.358,-1.339c-0.027,-0.042 -0.053,-0.084 -0.08,-0.124c0.131,-0.313 0.287,-0.667 0.473,-1.042l0.099,0.552c-0.168,0.19 -0.333,0.4 -0.492,0.614m0.541,-0.351l0.077,0.424c-0.141,0.033 -0.285,0.126 -0.422,0.252c-0.02,-0.033 -0.039,-0.066 -0.059,-0.099c0.121,-0.188 0.256,-0.38 0.404,-0.577m-0.561,0.824c0.009,0.018 0.018,0.035 0.026,0.051c-0.097,0.117 -0.19,0.241 -0.276,0.371c0.075,-0.133 0.159,-0.276 0.25,-0.422m-0.27,-0.071c0.031,-0.081 0.064,-0.168 0.102,-0.258l0.033,0.066c-0.044,0.064 -0.09,0.128 -0.135,0.192m0.422,0.915c-0.104,-0.082 -0.212,-0.164 -0.324,-0.248c0.081,-0.123 0.172,-0.254 0.276,-0.386c0.11,0.236 0.199,0.448 0.267,0.625c-0.073,0.002 -0.146,0.007 -0.219,0.009m0.59,-0.024c-0.132,-0.261 -0.285,-0.546 -0.453,-0.838c0.109,-0.126 0.223,-0.249 0.352,-0.371l0.218,1.202c-0.037,0.002 -0.077,0.004 -0.117,0.007m0.559,-0.509l-0.581,-1.343c0.201,-0.252 0.422,-0.503 0.663,-0.742c-0.097,0.674 -0.106,1.434 -0.082,2.085m0.603,0.46c-0.106,-0.563 -0.236,-1.527 -0.154,-2.543c0.34,0.466 0.609,0.955 0.815,1.381c-0.268,0.426 -0.493,0.837 -0.661,1.162m0.767,-0.175c0.044,-0.114 0.097,-0.247 0.159,-0.388c0.022,0.053 0.04,0.101 0.06,0.148c-0.076,0.079 -0.148,0.161 -0.219,0.24m0.583,-0.596c-0.06,0.051 -0.117,0.108 -0.174,0.163c-0.04,-0.077 -0.08,-0.156 -0.122,-0.238c0.099,-0.21 0.217,-0.435 0.354,-0.667c-0.014,0.28 -0.034,0.53 -0.058,0.742m0.323,0.632c0.008,-0.208 0.017,-0.442 0.02,-0.694c0.081,-0.075 0.167,-0.15 0.258,-0.223l-0.278,0.917Zm0.022,-0.904c0.002,-0.289 -0.005,-0.592 -0.018,-0.897c0.239,-0.353 0.524,-0.713 0.859,-1.043l-0.532,1.757c-0.104,0.051 -0.205,0.11 -0.309,0.183m0.766,0.069l0.053,-0.612c0.062,0.033 0.122,0.066 0.179,0.101c-0.081,0.175 -0.159,0.345 -0.232,0.511m0.33,0.634c0.072,-0.243 0.172,-0.553 0.302,-0.902c0.047,0.031 0.091,0.062 0.135,0.093c0.029,0.117 0.053,0.23 0.073,0.34c-0.188,0.168 -0.36,0.327 -0.51,0.469m0.634,-0.842c-0.053,-0.161 -0.109,-0.318 -0.173,-0.466c0.08,-0.195 0.166,-0.396 0.263,-0.603c0.115,0.36 0.186,0.72 0.226,1.058c-0.049,0.042 -0.095,0.082 -0.142,0.124c-0.06,-0.04 -0.117,-0.078 -0.174,-0.113m0.207,0.822c0,-0.007 -0.002,-0.011 -0.002,-0.018c0.049,-0.055 0.099,-0.112 0.157,-0.172c0,0.031 0.002,0.062 0.002,0.093c-0.053,0.031 -0.106,0.064 -0.157,0.097m0.561,-0.334c-0.011,0.007 -0.024,0.014 -0.035,0.02l-0.002,0c-0.009,-0.075 -0.02,-0.15 -0.031,-0.225c0.037,-0.038 0.073,-0.075 0.11,-0.113c-0.011,0.111 -0.026,0.217 -0.042,0.318m0.098,-0.952c-0.091,0.073 -0.179,0.146 -0.268,0.217c-0.092,-0.398 -0.218,-0.771 -0.391,-1.065c0.067,-0.139 0.139,-0.279 0.215,-0.42c0.167,0.252 0.318,0.506 0.452,0.753c0.003,0.177 0,0.349 -0.008,0.515m-0.38,-1.385c0.088,-0.157 0.181,-0.316 0.28,-0.473c0.051,0.329 0.084,0.647 0.1,0.954c-0.124,-0.176 -0.252,-0.34 -0.38,-0.481m0.753,2.103c-0.011,0.005 -0.02,0.009 -0.029,0.013c0.005,-0.159 0.007,-0.318 0.007,-0.479c0.009,-0.007 0.018,-0.016 0.026,-0.022c0.038,0.084 0.076,0.166 0.109,0.247c-0.038,0.08 -0.075,0.162 -0.113,0.241m0.263,-0.543c-0.02,-0.04 -0.042,-0.08 -0.062,-0.12c0.073,-0.064 0.15,-0.128 0.228,-0.19c-0.058,0.102 -0.111,0.206 -0.166,0.31m0.272,0.353c0.088,-0.216 0.185,-0.44 0.296,-0.665l0.048,0.438c-0.055,0.064 -0.11,0.128 -0.163,0.192c-0.06,0.009 -0.12,0.02 -0.181,0.035m0.28,0.829c-0.011,-0.025 -0.02,-0.049 -0.031,-0.073c0.056,-0.086 0.113,-0.177 0.177,-0.272l0.02,0.183l-0.166,0.162Zm0.692,-0.67l-0.029,0.029c-0.029,-0.031 -0.057,-0.062 -0.086,-0.088l-0.053,-0.153c0.059,-0.082 0.124,-0.163 0.188,-0.245c-0.009,0.154 -0.016,0.307 -0.02,0.457m0.068,-1.142c-0.055,0.057 -0.11,0.113 -0.163,0.17c-0.047,-0.022 -0.091,-0.042 -0.137,-0.057c0.031,0.033 0.062,0.07 0.09,0.106c-0.066,0.07 -0.132,0.141 -0.196,0.212l-0.162,-0.469c0.025,-0.048 0.051,-0.095 0.078,-0.143c0.176,-0.126 0.36,-0.248 0.55,-0.365c-0.024,0.181 -0.044,0.365 -0.06,0.546m0.111,-0.875c-0.091,0.04 -0.184,0.084 -0.277,0.13c0.111,-0.176 0.226,-0.353 0.352,-0.53c-0.029,0.131 -0.053,0.261 -0.075,0.4m0.316,0.988c0.086,-0.098 0.174,-0.195 0.267,-0.292c0.057,0.146 0.108,0.292 0.155,0.435l-0.42,0.405c-0.005,-0.175 -0.005,-0.358 -0.002,-0.548m0.024,-0.548c0.007,-0.089 0.013,-0.179 0.022,-0.27c0.026,0.058 0.053,0.117 0.08,0.177c-0.034,0.031 -0.069,0.062 -0.102,0.093m0.504,1.495c-0.067,0.034 -0.133,0.069 -0.197,0.102c-0.057,-0.097 -0.117,-0.19 -0.181,-0.281l0.322,-0.455c0.051,0.166 0.095,0.33 0.135,0.489c-0.026,0.048 -0.053,0.097 -0.079,0.145m0.137,-0.908l0.296,-0.419l-0.338,0.327c-0.064,-0.137 -0.133,-0.27 -0.208,-0.394c0.327,-0.331 0.689,-0.662 1.091,-0.976c0.104,0.126 0.204,0.256 0.299,0.387c-0.356,0.452 -0.69,0.965 -0.981,1.46c-0.049,-0.131 -0.102,-0.261 -0.159,-0.385m0.634,1.008c-0.069,0.075 -0.137,0.152 -0.201,0.23c-0.016,-0.053 -0.031,-0.104 -0.045,-0.157c0.003,-0.005 0.005,-0.011 0.007,-0.016c0.082,-0.048 0.166,-0.097 0.254,-0.146l0.002,0c-0.006,0.029 -0.011,0.06 -0.017,0.089m0.123,-0.55c-0.037,0.017 -0.073,0.035 -0.11,0.053c0.062,-0.128 0.128,-0.259 0.201,-0.393c-0.033,0.11 -0.062,0.225 -0.091,0.34m0.334,0.835c-0.033,0.002 -0.066,0.009 -0.099,0.018c0.006,-0.065 0.015,-0.131 0.024,-0.197c0.042,0.022 0.082,0.048 0.124,0.073c-0.016,0.035 -0.034,0.07 -0.049,0.106m-0.053,-0.358c0.004,-0.027 0.007,-0.053 0.011,-0.077c0.093,-0.106 0.192,-0.21 0.298,-0.314c0.044,-0.022 0.091,-0.047 0.137,-0.071c-0.095,0.184 -0.183,0.369 -0.269,0.55c-0.06,-0.031 -0.117,-0.062 -0.177,-0.088m0.113,-0.663c0.064,-0.318 0.143,-0.647 0.24,-0.981c0.14,0.212 0.27,0.424 0.387,0.634c-0.018,0.031 -0.035,0.064 -0.053,0.098c-0.192,0.079 -0.382,0.163 -0.574,0.249m0.452,1.474c-0.041,0 -0.081,0.002 -0.121,0.002c0.029,-0.091 0.06,-0.186 0.093,-0.283c0.046,0.033 0.09,0.064 0.137,0.097l-0.109,0.184Zm0.387,-0.659c-0.104,0.031 -0.21,0.064 -0.318,0.1c0.095,-0.259 0.205,-0.539 0.338,-0.831c0.066,0.133 0.128,0.261 0.186,0.385l-0.206,0.346Zm0.497,-1.361c-0.071,0.025 -0.143,0.051 -0.214,0.078c0.042,-0.084 0.088,-0.173 0.135,-0.259c0.028,0.06 0.053,0.122 0.079,0.181m-0.057,-0.223c0.046,-0.084 0.095,-0.17 0.146,-0.258l0.084,0.422c-0.029,0.011 -0.058,0.02 -0.087,0.031c-0.046,-0.071 -0.092,-0.135 -0.143,-0.195m0.15,0.462c0.009,0.027 0.02,0.051 0.029,0.077l-0.241,0.409c-0.06,-0.106 -0.119,-0.21 -0.179,-0.314c0.128,-0.057 0.258,-0.114 0.391,-0.172m-0.298,1.425l0.09,-0.254c0.018,0.04 0.033,0.077 0.049,0.117c-0.046,0.044 -0.095,0.091 -0.139,0.137m0.497,-0.482c-0.049,0.007 -0.1,0.016 -0.153,0.025c-0.035,-0.067 -0.07,-0.135 -0.108,-0.206l0.164,-0.455c0.061,0.203 0.11,0.4 0.15,0.588c-0.018,0.015 -0.036,0.031 -0.053,0.048m0.132,-1.38l-0.207,-0.5c0.033,-0.05 0.064,-0.101 0.097,-0.154c0.079,0.161 0.148,0.324 0.208,0.488l-0.098,0.166Zm0.022,0.053l-0.002,-0.003l0.078,-0.214c0.022,0.058 0.042,0.115 0.061,0.177c-0.046,0.013 -0.092,0.026 -0.137,0.04m0.084,0.205c0.038,-0.013 0.076,-0.031 0.113,-0.044c0.06,0.219 0.104,0.435 0.135,0.645l-0.248,-0.601Zm0.272,-0.303c-0.126,-0.267 -0.283,-0.486 -0.473,-0.631c0.14,-0.221 0.292,-0.442 0.455,-0.661c-0.006,0.424 0.005,0.862 0.027,1.288c-0.004,0 -0.007,0.004 -0.009,0.004m0.559,0.46c-0.022,0.018 -0.044,0.038 -0.064,0.055c-0.024,-0.15 -0.044,-0.307 -0.062,-0.47c0.042,-0.016 0.084,-0.029 0.128,-0.045c0.003,0.157 0.003,0.31 -0.002,0.46m1.297,0.356c-0.058,0.035 -0.115,0.07 -0.175,0.108c0.022,-0.058 0.047,-0.115 0.071,-0.172c0.035,0.022 0.071,0.042 0.104,0.064m-0.062,-0.164c0.17,-0.4 0.384,-0.824 0.647,-1.237c0.124,0.168 0.239,0.336 0.345,0.501c-0.25,0.239 -0.493,0.493 -0.727,0.749c-0.035,0.023 -0.071,0.047 -0.104,0.076c-0.055,-0.031 -0.108,-0.062 -0.161,-0.089m-0.241,-0.484c0.014,-0.057 0.027,-0.117 0.042,-0.176c0.049,-0.042 0.095,-0.082 0.146,-0.122c-0.064,0.097 -0.128,0.197 -0.188,0.298m0.007,2.015c0.177,-0.296 0.417,-0.669 0.722,-1.078c0.078,0.053 0.151,0.108 0.223,0.161l-0.945,0.917Zm0.806,-1.188c0.186,-0.243 0.391,-0.497 0.623,-0.754c0.073,0.122 0.142,0.243 0.206,0.36l-0.579,0.559c-0.084,-0.059 -0.168,-0.112 -0.25,-0.165m1.653,-0.524l0.084,0.455c-0.115,0.058 -0.23,0.115 -0.345,0.172c-0.099,-0.176 -0.205,-0.357 -0.316,-0.534l0.449,-0.634l-0.526,0.508c-0.075,-0.119 -0.153,-0.239 -0.232,-0.354c0.212,-0.229 0.444,-0.459 0.694,-0.687l0.181,1.003c-0.093,-0.035 -0.179,-0.062 -0.259,-0.077c0.091,0.049 0.181,0.097 0.27,0.148m-0.508,0.756c-0.157,0.081 -0.31,0.163 -0.46,0.243c-0.055,-0.04 -0.108,-0.08 -0.163,-0.12l0.402,-0.57c0.081,0.155 0.154,0.305 0.221,0.447m-0.718,0.258c0.031,0.027 0.064,0.051 0.095,0.075c-0.082,0.044 -0.164,0.089 -0.241,0.133l0.146,-0.208Zm0.656,0.78c-0.265,-0.002 -0.53,-0.004 -0.796,-0.007c0.175,-0.119 0.374,-0.252 0.597,-0.395c0.141,0.121 0.265,0.232 0.365,0.325c-0.058,0.026 -0.111,0.05 -0.166,0.077m0.4,-0.179c-0.131,-0.106 -0.272,-0.219 -0.422,-0.334c0.079,-0.05 0.163,-0.101 0.249,-0.154c0.08,0.19 0.142,0.353 0.186,0.481l-0.013,0.007m0.351,-0.15c-0.077,-0.157 -0.164,-0.323 -0.256,-0.497c0.073,-0.045 0.15,-0.086 0.227,-0.131l0.108,0.597c-0.026,0.009 -0.053,0.02 -0.079,0.031m0.4,-0.866c0.033,-0.018 0.066,-0.036 0.099,-0.051c0.002,0.102 0.005,0.201 0.007,0.3l-0.106,-0.249Zm0.249,-2.185c-0.057,-0.044 -0.114,-0.086 -0.172,-0.124c0.053,0.064 0.106,0.128 0.159,0.194c-0.099,0.522 -0.137,1.118 -0.139,1.686c-0.033,0.016 -0.064,0.031 -0.097,0.047c-0.073,-0.042 -0.146,-0.082 -0.217,-0.118l-0.517,-1.208c0.327,-0.294 0.685,-0.583 1.076,-0.851c-0.035,0.12 -0.066,0.243 -0.093,0.374m0.297,0.475c0.209,0.289 0.395,0.576 0.558,0.853c-0.185,0.072 -0.371,0.15 -0.558,0.229c-0.02,-0.34 -0.025,-0.707 0,-1.082m0.121,2.174c-0.013,-0.082 -0.026,-0.173 -0.04,-0.265c0.086,0.064 0.17,0.13 0.25,0.192c0,0.004 -0.002,0.006 -0.004,0.009c-0.067,0.019 -0.135,0.042 -0.206,0.064m0.292,-0.219c-0.117,-0.086 -0.237,-0.17 -0.356,-0.25c-0.013,-0.092 -0.022,-0.19 -0.031,-0.289c0.217,-0.108 0.44,-0.214 0.669,-0.318c0.038,0.066 0.071,0.13 0.104,0.194c-0.141,0.23 -0.271,0.453 -0.386,0.663m0.601,0.079c0.042,-0.013 0.081,-0.024 0.123,-0.037c0.003,0.004 0.003,0.009 0.005,0.013c-0.073,0.078 -0.144,0.155 -0.21,0.234c0.024,-0.066 0.053,-0.137 0.082,-0.21m0.581,-0.896l0.066,0.382c-0.102,0.084 -0.203,0.174 -0.303,0.269c-0.042,-0.079 -0.086,-0.159 -0.13,-0.238c0.073,-0.155 0.157,-0.318 0.252,-0.489c0.037,0.025 0.077,0.049 0.115,0.076m-0.349,1.12c0.008,0.024 0.019,0.046 0.028,0.068c-0.057,0.049 -0.112,0.1 -0.163,0.157l-0.016,-0.013c0.047,-0.069 0.098,-0.139 0.151,-0.212m-0.294,0.678c0.039,-0.058 0.084,-0.122 0.137,-0.186c0.077,0.071 0.146,0.137 0.203,0.192c-0.113,-0.004 -0.225,-0.004 -0.34,-0.006m0.28,-0.358c0.031,-0.033 0.064,-0.069 0.1,-0.102c0.035,0.098 0.066,0.184 0.093,0.257c-0.062,-0.049 -0.126,-0.102 -0.193,-0.155m0.234,-0.59c0.029,-0.035 0.06,-0.071 0.093,-0.106c0.025,-0.007 0.049,-0.013 0.075,-0.02c-0.019,0 -0.039,0.002 -0.059,0.002c0.037,-0.042 0.079,-0.084 0.123,-0.128l0.062,0.371c-0.07,0.003 -0.141,0.02 -0.207,0.049c-0.029,-0.055 -0.058,-0.113 -0.087,-0.168m0.131,0.252c0.053,-0.04 0.108,-0.082 0.166,-0.122l0.123,0.714c-0.084,-0.177 -0.181,-0.378 -0.289,-0.592m0.481,-0.76c0.062,0.049 0.124,0.097 0.182,0.146c0.002,0.101 0.004,0.205 0.006,0.302l-0.188,-0.448Zm0.071,-0.15c0.038,-0.029 0.073,-0.058 0.113,-0.086c-0.002,0.053 -0.002,0.108 -0.002,0.161c-0.038,-0.024 -0.073,-0.051 -0.111,-0.075m0.113,-0.186c-0.075,0.031 -0.153,0.071 -0.228,0.115c-0.022,-0.013 -0.044,-0.026 -0.064,-0.04l-0.232,-0.552c0.181,-0.066 0.367,-0.133 0.555,-0.194c-0.018,0.223 -0.027,0.45 -0.031,0.671m0.04,-0.784c-0.142,0.02 -0.285,0.046 -0.44,0.079c0.152,-0.218 0.32,-0.439 0.506,-0.656c-0.029,0.188 -0.051,0.382 -0.066,0.577m0.318,-1.569c-0.064,0.157 -0.117,0.332 -0.162,0.517c-0.315,0.234 -0.623,0.555 -0.908,0.91l-0.192,-0.461l0.1,0.581c-0.069,0.088 -0.135,0.177 -0.199,0.267c-0.164,0.051 -0.332,0.111 -0.499,0.172c-0.237,-0.36 -0.489,-0.693 -0.745,-0.961c0.049,-0.539 0.157,-1.089 0.362,-1.604c-0.269,0.175 -0.455,0.515 -0.581,0.939c-0.649,0.162 -1.352,0.661 -2.021,1.28c-0.133,-0.179 -0.268,-0.343 -0.404,-0.491c0.017,-0.026 0.035,-0.053 0.053,-0.079c0.302,-0.221 0.616,-0.436 0.945,-0.641c-0.258,0.068 -0.539,0.19 -0.835,0.349c0.082,-0.115 0.166,-0.232 0.254,-0.345c-0.21,0.131 -0.413,0.307 -0.61,0.522c-0.121,-0.115 -0.243,-0.215 -0.364,-0.29c0.106,0.12 0.203,0.241 0.298,0.36c-0.179,0.115 -0.362,0.239 -0.548,0.372c0.296,-1.09 0.762,-2.4 1.485,-3.542c-0.824,0.521 -1.558,2.373 -2.059,3.977c-0.089,0.07 -0.177,0.141 -0.263,0.214c-0.009,-0.097 -0.02,-0.192 -0.033,-0.285c0.057,-0.018 0.112,-0.037 0.17,-0.053c-0.055,-0.002 -0.117,0.002 -0.175,0.007c-0.073,-0.542 -0.21,-1.041 -0.442,-1.434c0.102,0.51 0.151,0.998 0.166,1.46c-0.046,0.005 -0.093,0.011 -0.141,0.02c-0.056,-0.501 -0.093,-1.056 -0.097,-1.637c0.013,-0.015 0.024,-0.031 0.037,-0.046c-0.011,0.008 -0.024,0.017 -0.037,0.024c-0.003,-0.714 0.046,-1.465 0.187,-2.198c-0.351,0.484 -0.492,1.407 -0.521,2.434c-0.243,0.199 -0.477,0.451 -0.703,0.738l-0.21,-0.508l0.126,0.616c-0.203,0.27 -0.395,0.564 -0.576,0.873c-0.142,-0.219 -0.287,-0.426 -0.433,-0.612c0.362,-0.526 0.8,-1.047 1.321,-1.502c-0.524,0.13 -1.061,0.61 -1.562,1.222c-0.111,-0.12 -0.223,-0.226 -0.334,-0.31c0.144,-0.11 0.29,-0.221 0.442,-0.324c-0.19,0.046 -0.386,0.125 -0.583,0.225c-0.029,-0.018 -0.057,-0.033 -0.086,-0.047c0.02,0.02 0.035,0.042 0.053,0.062c-0.385,0.201 -0.778,0.489 -1.164,0.822c-0.047,-0.064 -0.098,-0.126 -0.146,-0.185c0.216,-0.117 0.437,-0.226 0.667,-0.323c-0.203,-0.013 -0.431,0.024 -0.674,0.102c0.08,-0.632 0.221,-1.282 0.464,-1.891c-0.349,0.26 -0.583,0.799 -0.742,1.451c-0.323,0.25 -0.625,0.603 -0.908,1.016c-0.009,0.005 -0.016,0.011 -0.025,0.016l-0.19,-0.555l0.071,0.63c-0.247,0.161 -0.497,0.336 -0.742,0.521c-0.02,-0.035 -0.04,-0.068 -0.06,-0.101c-0.046,-0.577 -0.152,-1.123 -0.353,-1.569c0.245,-0.38 0.521,-0.749 0.83,-1.087c-0.479,0.164 -0.972,0.723 -1.425,1.423c-0.055,-0.047 -0.11,-0.091 -0.165,-0.128c0.044,0.059 0.088,0.119 0.132,0.181c-0.084,0.13 -0.165,0.263 -0.245,0.402c-0.051,-0.053 -0.106,-0.102 -0.166,-0.141c0.042,0.077 0.078,0.154 0.113,0.234c-0.115,0.201 -0.225,0.406 -0.331,0.614c-0.064,-0.097 -0.135,-0.183 -0.21,-0.256c0.059,0.119 0.11,0.238 0.159,0.355c-0.08,0.159 -0.159,0.318 -0.232,0.475c-0.071,-0.026 -0.139,-0.046 -0.203,-0.059l0.13,-1.494c0.144,-0.137 0.296,-0.267 0.459,-0.391c-0.148,0.027 -0.293,0.078 -0.437,0.15l0.011,-0.117l-0.04,0.131c-0.347,0.179 -0.685,0.477 -1.003,0.828c-0.066,-0.724 -0.205,-1.398 -0.468,-1.794c0.174,0.714 0.239,1.421 0.25,2.05c-0.228,0.279 -0.442,0.581 -0.637,0.882c-0.285,-0.51 -0.609,-1.008 -0.925,-1.319c0.05,-0.513 0.156,-1.034 0.353,-1.52c-0.387,0.247 -0.603,0.835 -0.716,1.533c-0.243,0.144 -0.503,0.378 -0.762,0.661l-0.199,-0.462c0.544,-1.102 1.315,-2.397 2.329,-3.457c-1.056,0.397 -2.291,2.372 -3.173,4.036c-0.207,-0.287 -0.424,-0.546 -0.64,-0.753c0.073,-0.816 0.21,-1.726 0.455,-2.632c0.079,-0.09 0.161,-0.181 0.243,-0.267c-0.062,0.024 -0.128,0.055 -0.192,0.091c0.097,-0.338 0.207,-0.676 0.34,-1.006c-0.29,0.265 -0.526,0.714 -0.72,1.264c-0.197,0.161 -0.398,0.362 -0.597,0.59c-0.088,-0.418 -0.168,-0.822 -0.232,-1.186c-0.669,-3.864 -1.778,-5.309 -1.692,-6.173c0.048,-0.477 0.877,-3.365 1.515,-5.517l-0.035,-0.006l0.314,-0.482c0.081,0.005 0.163,0.007 0.238,0.009c0.053,-0.122 0.1,-0.247 0.146,-0.382c0.066,-0.179 0.17,-0.31 0.296,-0.402l0.007,-0.014c0.068,-0.132 0.17,-0.227 0.285,-0.293c0.084,-0.102 0.168,-0.197 0.254,-0.281c1.542,-1.54 3.89,-2.238 6.031,-1.999c0.077,-0.122 0.142,-0.237 0.19,-0.334c1.014,0.435 2.938,0.875 4.428,1.191c1.162,0.245 5.801,-1.339 8.499,-0.435c0.486,0.163 0.892,-0.014 1.301,0.262c-0.153,-1.181 -0.674,-5.361 -1.041,-6.327c0,0 -0.015,-0.082 -0.035,-0.179c-0.033,-0.165 0.044,-0.338 0.194,-0.42c0.444,-0.247 1.315,-0.737 1.315,-0.737l-0.851,0.742c-0.287,0.25 -0.393,0.645 -0.269,1.005c0.892,2.627 1.595,8.338 1.875,10.872c0.224,2.004 0.341,9.142 0.387,13.178c-0.044,0.062 -0.086,0.124 -0.128,0.188c-0.239,-0.621 -0.513,-1.209 -0.811,-1.639c0.091,-0.082 0.183,-0.157 0.281,-0.23c-0.122,0.02 -0.243,0.06 -0.365,0.115c-0.018,-0.025 -0.035,-0.047 -0.055,-0.069c0.064,-0.291 0.146,-0.581 0.258,-0.857c-0.198,0.13 -0.353,0.349 -0.472,0.627c-0.031,-0.028 -0.064,-0.057 -0.095,-0.081c0.026,0.044 0.05,0.088 0.075,0.132m0.205,3.338c0.042,0.038 0.082,0.078 0.119,0.118c-0.026,0.046 -0.05,0.099 -0.075,0.145c-0.015,-0.079 -0.028,-0.17 -0.044,-0.263m0.232,-0.092c-0.093,-0.082 -0.183,-0.159 -0.276,-0.237c-0.053,-0.415 -0.088,-0.921 -0.077,-1.458c0.013,-0.004 0.028,-0.009 0.042,-0.013c-0.014,0 -0.029,0.002 -0.042,0.002c0.009,-0.322 0.033,-0.656 0.084,-0.99c0.028,-0.028 0.057,-0.055 0.088,-0.081c0.314,0.623 0.55,1.259 0.729,1.84c-0.208,0.327 -0.393,0.649 -0.548,0.937m0.745,-0.226c0.013,0.058 0.028,0.115 0.039,0.168c-0.068,0.078 -0.137,0.153 -0.203,0.23c0.047,-0.117 0.1,-0.252 0.164,-0.398m0.108,0.473c0.004,0.02 0.009,0.04 0.013,0.06c-0.075,0.07 -0.148,0.148 -0.212,0.225c0.058,-0.086 0.126,-0.185 0.199,-0.285m-0.124,0.446c0.051,-0.064 0.106,-0.13 0.168,-0.198c0.002,0.139 0.002,0.265 0.002,0.373c-0.055,-0.06 -0.11,-0.115 -0.17,-0.175m2.795,-1.084c0.018,-0.042 0.033,-0.084 0.051,-0.126c0.02,0.033 0.04,0.066 0.059,0.097c-0.037,0.051 -0.07,0.099 -0.106,0.15c-0.002,-0.04 -0.002,-0.082 -0.004,-0.121m0.013,0.596c0.073,-0.124 0.148,-0.252 0.234,-0.384c0.014,0.026 0.027,0.053 0.042,0.079c-0.095,0.1 -0.187,0.215 -0.274,0.334c-0.002,-0.011 -0.002,-0.02 -0.002,-0.029m0.02,0.846c0,-0.048 -0.002,-0.101 -0.002,-0.157c0.068,0.056 0.135,0.111 0.196,0.164c-0.064,-0.002 -0.128,-0.004 -0.194,-0.007m0.519,0.018c-0.168,-0.128 -0.344,-0.263 -0.528,-0.393c0,-0.055 -0.002,-0.111 -0.004,-0.168c0.099,-0.148 0.214,-0.307 0.344,-0.466c0.21,0.402 0.367,0.76 0.475,1.038c-0.095,-0.002 -0.19,-0.007 -0.287,-0.011m0.67,0.026c-0.193,-0.382 -0.429,-0.819 -0.69,-1.246c0.089,-0.099 0.184,-0.198 0.285,-0.296c-0.119,0.023 -0.238,0.089 -0.355,0.184c-0.027,-0.042 -0.051,-0.084 -0.078,-0.124c0.166,-0.25 0.352,-0.506 0.559,-0.764l0.402,2.251c-0.039,0 -0.081,-0.002 -0.123,-0.005m-0.12,-2.105c0.248,0.234 0.475,0.475 0.683,0.711c-0.007,0.31 -0.004,0.615 0.004,0.897l-0.687,-1.608Zm1.293,2.07c-0.04,-0.205 -0.08,-0.466 -0.113,-0.76c0.111,0.142 0.21,0.276 0.303,0.402c-0.071,0.126 -0.135,0.248 -0.19,0.358m0.285,-0.53c-0.137,-0.168 -0.281,-0.338 -0.427,-0.504c-0.05,-0.598 -0.061,-1.303 0.047,-2.01c0.333,0.729 0.545,1.429 0.676,2.004c-0.106,0.176 -0.206,0.346 -0.296,0.51m0.936,0.353c-0.041,0.027 -0.079,0.056 -0.119,0.087c-0.004,-0.025 -0.011,-0.051 -0.017,-0.076c0.046,-0.061 0.095,-0.121 0.145,-0.183l-0.009,0.172Zm0.027,-0.508c-0.08,0.075 -0.159,0.155 -0.236,0.237c-0.016,-0.067 -0.034,-0.133 -0.051,-0.199c0.088,-0.201 0.194,-0.42 0.32,-0.652l-0.033,0.614Zm3.139,-0.643c0.091,0.277 0.166,0.542 0.232,0.791c0,0.009 0,0.022 0.003,0.033c-0.261,0.014 -0.544,0.106 -0.829,0.239c-0.086,-0.075 -0.172,-0.148 -0.261,-0.216c0.237,-0.272 0.522,-0.564 0.855,-0.847m-2.633,0.893l-0.071,-0.398c0.064,-0.059 0.131,-0.119 0.201,-0.179c-0.048,0.199 -0.093,0.394 -0.13,0.577m-0.104,-0.588l-0.124,-0.696c0.31,-0.497 0.707,-1.014 1.209,-1.471c-0.351,0.501 -0.614,1.255 -0.804,1.988c-0.093,0.051 -0.188,0.113 -0.281,0.179m0.72,-0.09c0.226,0.143 0.44,0.296 0.643,0.457c-0.305,0.294 -0.574,0.579 -0.782,0.813c0.016,-0.32 0.051,-0.769 0.139,-1.27m1.032,0.784c0.064,0.057 0.124,0.113 0.183,0.168c-0.198,0.106 -0.395,0.227 -0.578,0.351c0.103,-0.148 0.238,-0.327 0.395,-0.519m0.451,0.61l0.002,0c-0.075,-0.018 -0.153,-0.02 -0.23,-0.011c-0.093,-0.007 -0.183,-0.011 -0.276,-0.016c0.117,-0.09 0.247,-0.181 0.387,-0.269c0.108,0.104 0.207,0.207 0.3,0.307c-0.06,-0.005 -0.121,-0.007 -0.183,-0.011m0.57,0.033c-0.153,-0.148 -0.316,-0.301 -0.482,-0.449c0.208,-0.117 0.435,-0.221 0.683,-0.309c0.028,0.435 0.044,0.711 0.048,0.773c-0.081,-0.004 -0.165,-0.009 -0.249,-0.015m2.357,-0.824c-0.007,-0.217 -0.013,-0.464 -0.02,-0.738c0.049,0.185 0.091,0.364 0.124,0.528c-0.036,0.071 -0.071,0.141 -0.104,0.21m0.727,-0.018c-0.062,0.086 -0.122,0.17 -0.179,0.254c0.055,-0.143 0.119,-0.305 0.19,-0.479l-0.011,0.225Zm0.554,-0.004c-0.026,0.013 -0.053,0.028 -0.079,0.046l-0.042,-0.241c0.079,-0.11 0.161,-0.225 0.247,-0.338c-0.046,0.179 -0.088,0.358 -0.126,0.533m0.429,0.811c0.018,-0.358 0.062,-0.88 0.177,-1.454c0.13,0.331 0.225,0.654 0.291,0.954c-0.176,0.181 -0.333,0.351 -0.468,0.5m0.205,-1.6c0.034,-0.159 0.073,-0.32 0.12,-0.484c0.059,-0.064 0.121,-0.128 0.185,-0.19c0.206,0.444 0.332,0.904 0.402,1.337c-0.097,0.09 -0.19,0.183 -0.28,0.272c-0.113,-0.352 -0.252,-0.679 -0.427,-0.935m0.601,1.593c0.056,-0.077 0.115,-0.159 0.181,-0.248c0.005,0.051 0.007,0.1 0.009,0.146c-0.064,0.04 -0.123,0.08 -0.185,0.122c-0.002,-0.007 -0.002,-0.013 -0.005,-0.02m0.628,-0.351c-0.031,0.015 -0.06,0.031 -0.089,0.046c-0.015,-0.104 -0.033,-0.21 -0.053,-0.314c0.06,-0.068 0.124,-0.139 0.19,-0.212c-0.013,0.166 -0.028,0.327 -0.048,0.48m2.684,-0.462c0.035,0.143 0.066,0.278 0.093,0.406c-0.144,0.078 -0.285,0.155 -0.424,0.23c-0.02,-0.024 -0.042,-0.051 -0.064,-0.077l0.395,-0.559Zm-0.199,-0.689c0.049,0.148 0.091,0.291 0.131,0.433l-0.562,0.541c-0.064,-0.073 -0.128,-0.146 -0.192,-0.217c0.186,-0.243 0.391,-0.499 0.623,-0.757m-0.437,-1.114c0.022,0.047 0.044,0.093 0.066,0.139c-0.057,0.005 -0.117,0.014 -0.174,0.02c0.035,-0.051 0.072,-0.106 0.108,-0.159m-0.259,0.407c0.117,-0.062 0.239,-0.122 0.363,-0.179c0.07,0.168 0.137,0.333 0.196,0.495c-0.274,0.258 -0.541,0.539 -0.795,0.817c-0.084,-0.082 -0.168,-0.164 -0.25,-0.241c0.142,-0.294 0.305,-0.592 0.486,-0.892m-0.55,0.34c-0.068,0.104 -0.135,0.212 -0.199,0.32c-0.039,-0.031 -0.079,-0.059 -0.117,-0.088c0.102,-0.08 0.206,-0.157 0.316,-0.232m-0.822,1.336c0.005,-0.22 0.003,-0.444 -0.006,-0.662c0.143,-0.137 0.296,-0.272 0.461,-0.405c0.042,0.042 0.084,0.082 0.126,0.122c-0.168,0.292 -0.327,0.599 -0.475,0.908c-0.035,0.011 -0.07,0.024 -0.106,0.037m0.566,-0.068c0.048,-0.018 0.095,-0.035 0.146,-0.051c-0.04,-0.004 -0.082,-0.004 -0.122,-0.004c0.075,-0.184 0.157,-0.369 0.248,-0.559c0.075,0.077 0.145,0.154 0.216,0.232c-0.223,0.252 -0.435,0.501 -0.63,0.744c0.045,-0.117 0.091,-0.238 0.142,-0.362m0.09,1.021c0.173,-0.29 0.407,-0.652 0.703,-1.05c0.057,0.069 0.115,0.139 0.17,0.208l-0.873,0.842Zm1.591,0.218c-0.208,-0.017 -0.415,-0.035 -0.625,-0.053c0.13,-0.09 0.274,-0.19 0.437,-0.298c0.089,0.126 0.164,0.239 0.228,0.334c-0.013,0.006 -0.027,0.013 -0.04,0.017m0.248,-0.115c-0.084,-0.108 -0.175,-0.223 -0.27,-0.344c0.071,-0.047 0.144,-0.093 0.221,-0.142c0.031,0.19 0.053,0.352 0.066,0.48c-0.004,0.002 -0.011,0.004 -0.017,0.006m0.468,-0.207c-0.04,0.017 -0.08,0.033 -0.119,0.051c-0.038,-0.157 -0.08,-0.323 -0.126,-0.497c0.09,-0.056 0.181,-0.111 0.278,-0.168l-0.033,0.614Zm0.535,-0.283l-0.1,-0.561c0.084,-0.049 0.172,-0.095 0.261,-0.144c-0.062,0.241 -0.115,0.48 -0.161,0.705m0.475,0.588c0.008,-0.153 0.019,-0.336 0.042,-0.539c0.066,-0.027 0.132,-0.056 0.201,-0.082c0.072,0.046 0.139,0.095 0.201,0.146c-0.166,0.17 -0.316,0.333 -0.444,0.475m0.287,-0.639c0.168,-0.066 0.338,-0.132 0.517,-0.194c-0.1,0.097 -0.197,0.192 -0.29,0.285c-0.073,-0.038 -0.15,-0.066 -0.227,-0.091m-0.226,-0.097c0.031,-0.254 0.073,-0.532 0.135,-0.824c0.091,-0.044 0.184,-0.091 0.276,-0.137c0.204,0.223 0.363,0.455 0.486,0.68c-0.285,0.073 -0.589,0.171 -0.897,0.281m1.127,0.234c0.029,0.08 0.053,0.159 0.075,0.234c-0.07,0.04 -0.141,0.082 -0.21,0.124c-0.028,-0.026 -0.057,-0.055 -0.086,-0.082c0.067,-0.086 0.142,-0.181 0.221,-0.276m0.113,0.63c-0.029,-0.033 -0.058,-0.066 -0.086,-0.1c0.033,-0.026 0.068,-0.05 0.104,-0.075c0.011,0.06 0.022,0.115 0.03,0.166c-0.017,0.004 -0.033,0.007 -0.048,0.009m1.087,-0.279c-0.007,0 -0.016,-0.002 -0.022,-0.004c0.006,0.004 0.013,0.009 0.017,0.011c-0.117,0.203 -0.234,0.38 -0.331,0.517l-0.004,0c-0.065,-0.197 -0.157,-0.442 -0.274,-0.698c0.238,-0.128 0.501,-0.245 0.788,-0.334c-0.26,-0.024 -0.559,0.051 -0.861,0.177c-0.062,-0.124 -0.128,-0.25 -0.204,-0.373c0.084,-0.089 0.173,-0.179 0.266,-0.27c0.046,-0.011 0.095,-0.024 0.141,-0.035c-0.033,-0.002 -0.073,0.002 -0.108,0.004c0.336,-0.325 0.731,-0.647 1.19,-0.925c0.014,0.399 -0.088,0.808 -0.236,1.186c-0.238,-0.203 -0.499,-0.351 -0.769,-0.376c0.274,0.17 0.497,0.376 0.681,0.586c-0.086,0.192 -0.179,0.369 -0.274,0.534m0.466,0.186c-0.018,-0.011 -0.033,-0.02 -0.049,-0.029c0.047,-0.104 0.091,-0.212 0.135,-0.322c0.04,0.062 0.073,0.119 0.106,0.177l-0.192,0.174Zm2.278,0.141c0.009,0.023 0.017,0.042 0.024,0.06c-0.062,0.044 -0.126,0.086 -0.186,0.128c-0.044,-0.031 -0.092,-0.059 -0.141,-0.084c0.097,-0.035 0.199,-0.068 0.303,-0.104m-0.248,-0.015c0.038,-0.064 0.08,-0.133 0.126,-0.203c0.031,0.046 0.058,0.093 0.082,0.139c-0.069,0.02 -0.137,0.042 -0.208,0.064m1.003,-1.35c-0.298,0.206 -0.605,0.55 -0.879,0.91c-0.091,-0.075 -0.19,-0.134 -0.303,-0.174c0.341,-0.241 0.736,-0.493 1.182,-0.736m-2.112,1.657c-0.02,-0.038 -0.044,-0.079 -0.068,-0.121c0.042,-0.04 0.086,-0.078 0.132,-0.12c-0.022,0.091 -0.044,0.173 -0.064,0.241m0.131,-0.55c-0.109,0.079 -0.213,0.157 -0.314,0.234c-0.047,-0.077 -0.1,-0.157 -0.155,-0.241l0.541,-0.78c0.003,0.277 -0.028,0.551 -0.072,0.787m0.293,0.011c0.071,-0.057 0.144,-0.113 0.221,-0.172l-0.247,0.442c0.009,-0.089 0.018,-0.179 0.026,-0.27m0.19,0.691l-0.011,0l0.056,-0.196c0.035,-0.013 0.07,-0.027 0.108,-0.04c-0.058,0.084 -0.106,0.164 -0.153,0.236m0.259,-0.397c-0.005,0.006 -0.009,0.011 -0.011,0.017c-0.058,0.018 -0.111,0.036 -0.166,0.056l0.201,-0.707c0.097,0.079 0.179,0.163 0.248,0.247c-0.095,0.131 -0.186,0.259 -0.268,0.38c-0.009,0 -0.015,-0.004 -0.024,-0.004c0.007,0.002 0.013,0.006 0.02,0.011m0.146,0.097c0.039,0.031 0.077,0.06 0.11,0.091c-0.086,0.059 -0.168,0.117 -0.243,0.172c0.031,-0.071 0.077,-0.159 0.133,-0.263m-0.033,0.342c0.03,-0.024 0.066,-0.053 0.106,-0.086c0.059,0.038 0.108,0.078 0.148,0.115c-0.084,-0.009 -0.171,-0.017 -0.254,-0.029m0.368,0.042c-0.059,-0.064 -0.143,-0.117 -0.254,-0.134c0.034,-0.027 0.069,-0.053 0.106,-0.084c0.073,0.077 0.124,0.152 0.164,0.221c-0.004,0 -0.009,-0.003 -0.016,-0.003m-0.072,-0.274c0.042,-0.033 0.086,-0.068 0.134,-0.101c0.04,0.119 0.06,0.225 0.071,0.309c-0.06,-0.071 -0.13,-0.143 -0.205,-0.208m1.557,0.08c-0.068,0.044 -0.135,0.088 -0.199,0.133c-0.033,-0.023 -0.066,-0.042 -0.101,-0.06l0.205,-0.261c0.038,0.064 0.069,0.126 0.095,0.188m-0.457,-0.806c-0.009,0.039 -0.018,0.081 -0.029,0.121c-0.031,-0.009 -0.064,-0.018 -0.097,-0.024c0.02,0.013 0.04,0.029 0.057,0.042c-0.084,0.015 -0.17,0.033 -0.26,0.055c0.106,-0.066 0.214,-0.13 0.329,-0.194m-0.767,0.481c0.077,-0.055 0.161,-0.11 0.248,-0.168c0.154,-0.044 0.311,-0.088 0.472,-0.132c-0.108,0.34 -0.335,0.656 -0.479,0.837c-0.049,-0.146 -0.128,-0.342 -0.241,-0.537m0.723,0.332l-0.102,0.081c0.099,-0.185 0.201,-0.399 0.258,-0.598c0.078,0.077 0.142,0.157 0.195,0.234l-0.345,0.278c-0.009,-0.002 -0.015,-0.006 -0.024,-0.006c0.007,0.002 0.011,0.006 0.018,0.011m0.046,0.307c-0.011,0 -0.024,-0.002 -0.035,-0.005l0.154,-0.192c0.025,0.02 0.049,0.04 0.073,0.06c-0.068,0.048 -0.132,0.095 -0.192,0.137m0.351,-0.111c0.042,-0.033 0.089,-0.07 0.142,-0.11c0.017,0.053 0.033,0.101 0.044,0.148c-0.036,0.011 -0.071,0.024 -0.104,0.035c-0.026,-0.026 -0.055,-0.048 -0.082,-0.073m0.643,0.23c-0.029,-0.002 -0.057,-0.007 -0.086,-0.009c-0.024,-0.066 -0.053,-0.139 -0.088,-0.216c0.066,-0.022 0.134,-0.044 0.207,-0.069c0.04,0.029 0.08,0.058 0.115,0.086c-0.053,0.078 -0.101,0.146 -0.148,0.208m0.049,-0.345c-0.055,-0.017 -0.111,-0.035 -0.168,-0.044c0.035,0.02 0.071,0.042 0.101,0.062c-0.059,0.018 -0.119,0.035 -0.178,0.053c-0.034,-0.068 -0.069,-0.137 -0.111,-0.208c0.208,-0.143 0.471,-0.304 0.776,-0.461c-0.034,0.187 -0.111,0.373 -0.204,0.539c-0.07,0.02 -0.143,0.04 -0.216,0.059m1.279,0.513c-0.08,-0.009 -0.159,-0.02 -0.239,-0.031c0.093,-0.033 0.199,-0.068 0.31,-0.104c-0.02,0.047 -0.045,0.089 -0.071,0.135m0.095,-0.192c-0.159,0.046 -0.32,0.095 -0.471,0.146c-0.057,-0.009 -0.112,-0.016 -0.17,-0.023c0.157,-0.13 0.389,-0.304 0.69,-0.488c0.019,0.122 0,0.245 -0.049,0.365" style="fill:#231f20;fill-rule:nonzero;"/></svg>