<?xml version="1.0" encoding="UTF-8" standalone="no"?><!DOCTYPE svg PUBLIC "-//W3C//DTD SVG 1.1//EN" "http://www.w3.org/Graphics/SVG/1.1/DTD/svg11.dtd"><svg width="100%" height="100%" viewBox="0 0 91 66" version="1.1" xmlns="http://www.w3.org/2000/svg" xmlns:xlink="http://www.w3.org/1999/xlink" xml:space="preserve" xmlns:serif="http://www.serif.com/" style="fill-rule:evenodd;clip-rule:evenodd;stroke-linejoin:round;stroke-miterlimit:1.41421;"><g><path d="M46.999,39.808c-0.939,-0.682 -1.847,-1.497 -2.722,-2.165c-0.192,-0.148 -0.371,0.334 -0.7,0.738c-0.177,0.219 -1.438,1.98 -1.608,2.203c-0.126,0.163 -0.838,1.069 -0.701,1.193c0.732,0.665 2.475,2.434 3.208,2.792c0.884,0.438 1.321,-1.327 2.41,-0.883c0.36,0.143 1.251,0.72 1.933,0.764c0.699,0.044 1.346,-0.806 1.998,-1.599c0.086,-0.109 -0.038,-0.219 -0.151,-0.292c-0.422,-0.287 -0.945,-0.78 -3.667,-2.751" style="fill:#231f20;fill-rule:nonzero;"/><path d="M78.49,30.272c1.109,-1.727 2.229,-2.883 3.546,-4.5c1.617,-1.984 2.416,-3.027 4.4,-5.996c1.547,-2.322 2.216,-2.481 3.608,-4.626c0.742,-1.14 0.396,-1.032 -0.568,-1.75c-0.437,-0.325 -6.336,-5.021 -7.398,-5.837c-1.726,-1.323 -3.255,-2.492 -4.291,-3.216c-2.874,-2.009 -3.946,-3.61 -4.765,-2.837c-1.748,1.65 -3.14,3.338 -4.79,5.488c-1.409,1.842 -2.958,3.55 -4.436,5.331c-2.89,3.475 -3.763,5.432 -7.116,9.555c-1.659,2.039 -4.299,5.331 -5.888,7.423c-1.264,1.663 -2.328,2.87 -3.581,4.547c-0.475,0.631 -1.668,2.083 -2.229,2.693c-0.378,0.408 0.104,0.528 0.689,0.963c0.738,0.55 5.216,4.074 5.923,4.657c1.339,1.107 5.391,3.424 6.478,4.246c0.68,0.517 2.841,1.898 4.093,2.749c0.478,0.324 1.079,0.693 1.461,0.194c1.584,-2.07 2.766,-3.321 4.098,-5.382c0.548,-0.85 1.613,-1.891 2.229,-2.688c0.592,-0.767 3.08,-3.747 3.654,-4.516c1.39,-1.849 3.632,-4.547 4.883,-6.498m-5.177,-24.668c-0.362,-0.321 -0.649,-0.902 -0.236,-1.434c0.144,-0.19 0.453,-0.402 0.687,-0.482c0.678,-0.227 1.566,0.579 1.222,1.41c-0.263,0.634 -1.153,0.959 -1.673,0.506" style="fill:#231f20;fill-rule:nonzero;"/><path d="M0.201,0.009c0.758,0.298 1.147,0.815 1.776,1.31c0.913,0.716 1.677,1.6 2.508,2.397c0.789,0.758 1.608,1.472 2.393,2.23c0.704,0.669 1.332,1.398 2.061,2.043c1.551,1.374 2.918,3.014 4.379,4.485c1.413,1.427 2.903,2.786 4.274,4.251c2.678,2.854 3.628,4.427 6.752,7.814c1.546,1.672 4.014,4.374 5.514,6.086c1.198,1.366 2.172,2.355 3.358,3.727c0.451,0.519 1.558,1.712 2.07,2.214c0.345,0.34 0.007,0.409 -0.36,0.72c-0.461,0.393 -1.208,1.153 -1.641,1.575c-0.82,0.796 -5.238,4.75 -5.917,5.34c-0.426,0.369 -1.526,1.372 -2.319,1.975c-0.305,0.23 -0.69,0.488 -1.052,0.08c-1.496,-1.695 -3.097,-3.336 -4.407,-5.013c-0.535,-0.685 -1.034,-1.432 -1.613,-2.086c-0.559,-0.625 -0.988,-1.327 -1.531,-1.953c-1.319,-1.515 -2.439,-3.157 -3.674,-4.743c-1.087,-1.405 -2.364,-2.605 -3.303,-4.131c-1.036,-1.69 -1.957,-3.456 -2.947,-5.17c-1.187,-2.072 -2.229,-4.242 -3.303,-6.391c-0.771,-1.536 -1.03,-3.257 -1.414,-4.958c-0.095,-0.422 -0.055,-0.868 -0.139,-1.299c-0.086,-0.448 -0.192,-0.87 -0.274,-1.328c-0.241,-1.356 -0.513,-2.286 -0.563,-3.329c-0.053,-1.147 -0.243,-1.383 -0.486,-2.698c-0.1,-0.552 -0.257,-1.411 -0.308,-2.003c-0.044,-0.502 -0.092,-1.246 0.166,-1.145" style="fill:#231f20;fill-rule:nonzero;"/><path d="M33.452,40.251c0.939,-0.782 1.832,-1.708 2.702,-2.475c0.195,-0.17 0.42,0.33 0.804,0.743c0.208,0.218 1.693,2.012 1.892,2.238c0.15,0.168 0.801,0.704 0.667,0.841c-0.718,0.76 -2.623,2.634 -3.372,3.065c-0.899,0.514 -1.182,-0.933 -2.246,-0.296c-1.35,0.813 -3.08,2.116 -4.532,2.759c-0.665,0.3 -3.413,1.352 -4.166,0.546c-0.104,-0.109 0.017,-0.232 0.128,-0.321c0.426,-0.329 1.518,-1.197 2.112,-1.725c0.208,-0.184 3.296,-3.111 6.011,-5.375" style="fill:#231f20;fill-rule:nonzero;"/><path d="M50.462,63.588c-0.371,-1.031 -0.639,-1.935 -1.518,-2.808c-0.665,-0.415 -1.283,-0.961 -1.785,-1.308c-1.522,-1.053 -2.684,-2.381 -3.91,-3.758c-1.403,-1.575 -2.336,-3.532 -3.462,-5.313c-0.511,-0.806 -0.899,-1.692 -1.403,-2.494c-0.513,-0.815 -1.889,-2.026 -1.527,-2.24c0.495,-0.299 3.354,-3.374 3.674,-3.104c0.577,0.486 0.864,0.965 1.273,1.336c0.744,0.67 1.509,1.218 2.178,1.978c2.561,2.927 5.274,5.746 7.691,8.817c0.329,0.42 0.676,0.839 0.998,1.272c0.024,0.009 0.055,0.033 0.095,0.089c0.234,0.322 0.495,0.68 0.778,1.058c0.137,0.166 0.276,0.336 0.378,0.508c0.486,0.641 1.033,1.334 1.645,2.055c0.741,0.879 1.419,2.41 1.476,2.92c0.217,1.916 -1.551,3.14 -3.627,3.042c-1.587,-0.075 -2.322,-0.307 -2.954,-2.05m-8.102,-16.18c-0.229,-0.067 -0.483,-0.014 -0.682,0.121c-0.036,0.024 -0.069,0.053 -0.097,0.08c-1.116,1.062 0.66,2.355 1.409,1.303c0.44,-0.616 -0.024,-1.343 -0.63,-1.504m10.601,14.989c0.598,0.153 1.314,-0.596 0.967,-1.29c-0.263,-0.528 -1.051,-0.755 -1.469,-0.333c-0.294,0.293 -0.508,0.817 -0.121,1.25c0.136,0.153 0.417,0.32 0.623,0.373" style="fill:#231f20;fill-rule:nonzero;"/><path d="M29.387,54.693c-0.326,0.42 -0.673,0.844 -1,1.272c-0.025,0.007 -0.056,0.036 -0.093,0.089c-0.234,0.327 -0.495,0.682 -0.776,1.06c-0.137,0.164 -0.276,0.334 -0.38,0.504c-0.486,0.643 -1.031,1.339 -1.643,2.059c-0.745,0.877 -1.419,2.412 -1.478,2.916c-0.215,1.918 1.551,3.142 3.627,3.042c1.587,-0.075 2.325,-0.305 2.954,-2.048c0.374,-1.027 0.636,-1.935 1.518,-2.805c0.663,-0.418 1.284,-0.964 1.783,-1.31c1.524,-1.052 2.686,-2.382 3.912,-3.761c0.782,-0.877 0.676,-0.594 1.284,-1.61c0.175,-0.294 0.524,-0.793 0.32,-1.215c-0.046,-0.102 -0.232,-0.888 -0.32,-1.092c-0.298,-0.698 -0.758,-1.743 -1.295,-2.408c-0.327,-0.408 -0.976,-1.365 -1.369,-1.787c-0.347,-0.365 -0.559,-0.044 -0.995,0.205c-0.11,0.062 -0.207,0.144 -0.291,0.235c-1.96,2.178 -3.942,4.345 -5.758,6.654m-0.665,7.328c-0.136,0.159 -0.415,0.323 -0.625,0.376c-0.596,0.156 -1.314,-0.592 -0.965,-1.291c0.265,-0.528 1.051,-0.751 1.471,-0.333c0.292,0.298 0.504,0.815 0.119,1.248" style="fill:#231f20;fill-rule:nonzero;"/></g></svg>